<mxfile modified="2024-02-29T07:31:23.994Z" host="Electron" agent="Mozilla/5.0 (Windows NT 10.0; Win64; x64) AppleWebKit/537.36 (KHTML, like Gecko) draw.io/23.1.5 Chrome/120.0.6099.109 Electron/28.1.0 Safari/537.36" etag="NoK1LwYK5n9qNAMvBL8l" version="23.1.5" type="device" pages="6">
  <diagram id="Ht1M8jgEwFfnCIfOTk4-" name="Page-1">
    <mxGraphModel dx="1050" dy="1448" grid="1" gridSize="10" guides="1" tooltips="1" connect="1" arrows="1" fold="1" page="1" pageScale="1" pageWidth="1169" pageHeight="827" math="0" shadow="0">
      <root>
        <mxCell id="0" />
        <mxCell id="1" parent="0" />
        <mxCell id="UEzPUAAOIrF-is8g5C7q-176" value="Shared Services Account" style="points=[[0,0],[0.25,0],[0.5,0],[0.75,0],[1,0],[1,0.25],[1,0.5],[1,0.75],[1,1],[0.75,1],[0.5,1],[0.25,1],[0,1],[0,0.75],[0,0.5],[0,0.25]];outlineConnect=0;gradientColor=none;html=1;whiteSpace=wrap;fontSize=12;fontStyle=0;shape=mxgraph.aws4.group;grIcon=mxgraph.aws4.group_aws_cloud_alt;strokeColor=#232F3E;fillColor=none;verticalAlign=top;align=left;spacingLeft=30;fontColor=#232F3E;dashed=0;labelBackgroundColor=#ffffff;container=1;pointerEvents=0;collapsible=0;recursiveResize=0;" parent="1" vertex="1">
          <mxGeometry x="219" y="-349.5" width="220" height="310" as="geometry" />
        </mxCell>
        <mxCell id="UEzPUAAOIrF-is8g5C7q-185" value="Log Archive Account" style="points=[[0,0],[0.25,0],[0.5,0],[0.75,0],[1,0],[1,0.25],[1,0.5],[1,0.75],[1,1],[0.75,1],[0.5,1],[0.25,1],[0,1],[0,0.75],[0,0.5],[0,0.25]];outlineConnect=0;gradientColor=none;html=1;whiteSpace=wrap;fontSize=12;fontStyle=0;shape=mxgraph.aws4.group;grIcon=mxgraph.aws4.group_aws_cloud_alt;strokeColor=#232F3E;fillColor=none;verticalAlign=top;align=left;spacingLeft=30;fontColor=#232F3E;dashed=0;labelBackgroundColor=#ffffff;container=1;pointerEvents=0;collapsible=0;recursiveResize=0;" parent="1" vertex="1">
          <mxGeometry x="464" y="-349.5" width="230" height="310" as="geometry" />
        </mxCell>
        <mxCell id="UEzPUAAOIrF-is8g5C7q-186" value="Security Account" style="points=[[0,0],[0.25,0],[0.5,0],[0.75,0],[1,0],[1,0.25],[1,0.5],[1,0.75],[1,1],[0.75,1],[0.5,1],[0.25,1],[0,1],[0,0.75],[0,0.5],[0,0.25]];outlineConnect=0;gradientColor=none;html=1;whiteSpace=wrap;fontSize=12;fontStyle=0;shape=mxgraph.aws4.group;grIcon=mxgraph.aws4.group_aws_cloud_alt;strokeColor=#232F3E;fillColor=none;verticalAlign=top;align=left;spacingLeft=30;fontColor=#232F3E;dashed=0;labelBackgroundColor=#ffffff;container=1;pointerEvents=0;collapsible=0;recursiveResize=0;" parent="1" vertex="1">
          <mxGeometry x="720" y="-349.5" width="230" height="310" as="geometry" />
        </mxCell>
        <mxCell id="UEzPUAAOIrF-is8g5C7q-175" value="AWS Cloud" style="points=[[0,0],[0.25,0],[0.5,0],[0.75,0],[1,0],[1,0.25],[1,0.5],[1,0.75],[1,1],[0.75,1],[0.5,1],[0.25,1],[0,1],[0,0.75],[0,0.5],[0,0.25]];outlineConnect=0;gradientColor=none;html=1;whiteSpace=wrap;fontSize=12;fontStyle=0;shape=mxgraph.aws4.group;grIcon=mxgraph.aws4.group_aws_cloud_alt;strokeColor=#232F3E;fillColor=none;verticalAlign=top;align=left;spacingLeft=30;fontColor=#232F3E;dashed=0;labelBackgroundColor=#ffffff;container=1;pointerEvents=0;collapsible=0;recursiveResize=0;" parent="1" vertex="1">
          <mxGeometry x="219" y="-789.5" width="730" height="410" as="geometry" />
        </mxCell>
        <mxCell id="UEzPUAAOIrF-is8g5C7q-195" style="edgeStyle=orthogonalEdgeStyle;rounded=0;orthogonalLoop=1;jettySize=auto;html=1;startArrow=none;startFill=0;endArrow=open;endFill=0;strokeColor=#808080;strokeWidth=2;" parent="1" source="UEzPUAAOIrF-is8g5C7q-177" target="UEzPUAAOIrF-is8g5C7q-178" edge="1">
          <mxGeometry relative="1" as="geometry" />
        </mxCell>
        <mxCell id="UEzPUAAOIrF-is8g5C7q-196" style="edgeStyle=orthogonalEdgeStyle;rounded=0;orthogonalLoop=1;jettySize=auto;html=1;startArrow=none;startFill=0;endArrow=open;endFill=0;strokeColor=#808080;strokeWidth=2;" parent="1" source="UEzPUAAOIrF-is8g5C7q-178" target="UEzPUAAOIrF-is8g5C7q-179" edge="1">
          <mxGeometry relative="1" as="geometry" />
        </mxCell>
        <mxCell id="UEzPUAAOIrF-is8g5C7q-198" style="edgeStyle=orthogonalEdgeStyle;rounded=0;orthogonalLoop=1;jettySize=auto;html=1;startArrow=none;startFill=0;endArrow=open;endFill=0;strokeColor=#808080;strokeWidth=2;" parent="1" source="UEzPUAAOIrF-is8g5C7q-178" target="UEzPUAAOIrF-is8g5C7q-181" edge="1">
          <mxGeometry relative="1" as="geometry">
            <Array as="points">
              <mxPoint x="355" y="-689.5" />
            </Array>
          </mxGeometry>
        </mxCell>
        <mxCell id="UEzPUAAOIrF-is8g5C7q-199" style="edgeStyle=orthogonalEdgeStyle;rounded=0;orthogonalLoop=1;jettySize=auto;html=1;startArrow=none;startFill=0;endArrow=open;endFill=0;strokeColor=#808080;strokeWidth=2;" parent="1" source="UEzPUAAOIrF-is8g5C7q-178" target="UEzPUAAOIrF-is8g5C7q-182" edge="1">
          <mxGeometry relative="1" as="geometry" />
        </mxCell>
        <mxCell id="UEzPUAAOIrF-is8g5C7q-200" style="edgeStyle=orthogonalEdgeStyle;rounded=0;orthogonalLoop=1;jettySize=auto;html=1;startArrow=none;startFill=0;endArrow=open;endFill=0;strokeColor=#808080;strokeWidth=2;" parent="1" source="UEzPUAAOIrF-is8g5C7q-178" target="UEzPUAAOIrF-is8g5C7q-183" edge="1">
          <mxGeometry relative="1" as="geometry">
            <Array as="points">
              <mxPoint x="576" y="-689.5" />
            </Array>
          </mxGeometry>
        </mxCell>
        <mxCell id="UEzPUAAOIrF-is8g5C7q-197" style="edgeStyle=orthogonalEdgeStyle;rounded=0;orthogonalLoop=1;jettySize=auto;html=1;startArrow=none;startFill=0;endArrow=open;endFill=0;strokeColor=#808080;strokeWidth=2;" parent="1" source="UEzPUAAOIrF-is8g5C7q-179" target="UEzPUAAOIrF-is8g5C7q-180" edge="1">
          <mxGeometry relative="1" as="geometry" />
        </mxCell>
        <mxCell id="UEzPUAAOIrF-is8g5C7q-201" style="edgeStyle=orthogonalEdgeStyle;rounded=0;orthogonalLoop=1;jettySize=auto;html=1;startArrow=none;startFill=0;endArrow=open;endFill=0;strokeColor=#808080;strokeWidth=2;" parent="1" source="UEzPUAAOIrF-is8g5C7q-179" target="UEzPUAAOIrF-is8g5C7q-184" edge="1">
          <mxGeometry relative="1" as="geometry" />
        </mxCell>
        <mxCell id="UEzPUAAOIrF-is8g5C7q-202" style="edgeStyle=orthogonalEdgeStyle;rounded=0;orthogonalLoop=1;jettySize=auto;html=1;startArrow=none;startFill=0;endArrow=open;endFill=0;strokeColor=#808080;strokeWidth=2;" parent="1" source="UEzPUAAOIrF-is8g5C7q-184" target="UEzPUAAOIrF-is8g5C7q-176" edge="1">
          <mxGeometry relative="1" as="geometry">
            <Array as="points">
              <mxPoint x="739" y="-369.5" />
              <mxPoint x="329" y="-369.5" />
            </Array>
          </mxGeometry>
        </mxCell>
        <mxCell id="UEzPUAAOIrF-is8g5C7q-203" style="edgeStyle=orthogonalEdgeStyle;rounded=0;orthogonalLoop=1;jettySize=auto;html=1;startArrow=none;startFill=0;endArrow=open;endFill=0;strokeColor=#808080;strokeWidth=2;" parent="1" source="UEzPUAAOIrF-is8g5C7q-184" target="UEzPUAAOIrF-is8g5C7q-185" edge="1">
          <mxGeometry relative="1" as="geometry">
            <Array as="points">
              <mxPoint x="739" y="-369.5" />
              <mxPoint x="674" y="-369.5" />
            </Array>
          </mxGeometry>
        </mxCell>
        <mxCell id="UEzPUAAOIrF-is8g5C7q-204" style="edgeStyle=orthogonalEdgeStyle;rounded=0;orthogonalLoop=1;jettySize=auto;html=1;entryX=0.5;entryY=0;entryDx=0;entryDy=0;startArrow=none;startFill=0;endArrow=open;endFill=0;strokeColor=#808080;strokeWidth=2;" parent="1" source="UEzPUAAOIrF-is8g5C7q-184" target="UEzPUAAOIrF-is8g5C7q-186" edge="1">
          <mxGeometry relative="1" as="geometry">
            <Array as="points">
              <mxPoint x="739" y="-369.5" />
              <mxPoint x="835" y="-369.5" />
            </Array>
          </mxGeometry>
        </mxCell>
        <mxCell id="UEzPUAAOIrF-is8g5C7q-177" value="Amazon S3&lt;br&gt;Bucket&lt;br&gt;" style="outlineConnect=0;fontColor=#232F3E;gradientColor=none;fillColor=#277116;strokeColor=none;dashed=0;verticalLabelPosition=bottom;verticalAlign=top;align=center;html=1;fontSize=12;fontStyle=0;aspect=fixed;pointerEvents=1;shape=mxgraph.aws4.bucket;labelBackgroundColor=#ffffff;" parent="1" vertex="1">
          <mxGeometry x="249" y="-749.5" width="75" height="78" as="geometry" />
        </mxCell>
        <mxCell id="UEzPUAAOIrF-is8g5C7q-178" value="AWS&lt;br&gt;CodePipeline&lt;br&gt;" style="outlineConnect=0;fontColor=#232F3E;gradientColor=#4D72F3;gradientDirection=north;fillColor=#3334B9;strokeColor=#ffffff;dashed=0;verticalLabelPosition=bottom;verticalAlign=top;align=center;html=1;fontSize=12;fontStyle=0;aspect=fixed;shape=mxgraph.aws4.resourceIcon;resIcon=mxgraph.aws4.codepipeline;labelBackgroundColor=#ffffff;" parent="1" vertex="1">
          <mxGeometry x="429" y="-749.5" width="78" height="78" as="geometry" />
        </mxCell>
        <mxCell id="UEzPUAAOIrF-is8g5C7q-179" value="AWS&lt;br&gt;Organizations&lt;br&gt;" style="outlineConnect=0;fontColor=#232F3E;gradientColor=#F54749;gradientDirection=north;fillColor=#C7131F;strokeColor=#ffffff;dashed=0;verticalLabelPosition=bottom;verticalAlign=top;align=center;html=1;fontSize=12;fontStyle=0;aspect=fixed;shape=mxgraph.aws4.resourceIcon;resIcon=mxgraph.aws4.organizations;labelBackgroundColor=#ffffff;" parent="1" vertex="1">
          <mxGeometry x="700" y="-749.5" width="78" height="78" as="geometry" />
        </mxCell>
        <mxCell id="UEzPUAAOIrF-is8g5C7q-180" value="AWS Single&lt;br&gt;Sign-on&lt;br&gt;" style="outlineConnect=0;fontColor=#232F3E;gradientColor=#F34482;gradientDirection=north;fillColor=#BC1356;strokeColor=#ffffff;dashed=0;verticalLabelPosition=bottom;verticalAlign=top;align=center;html=1;fontSize=12;fontStyle=0;aspect=fixed;shape=mxgraph.aws4.resourceIcon;resIcon=mxgraph.aws4.cloudwatch;labelBackgroundColor=#ffffff;" parent="1" vertex="1">
          <mxGeometry x="856" y="-749.5" width="78" height="78" as="geometry" />
        </mxCell>
        <mxCell id="UEzPUAAOIrF-is8g5C7q-181" value="Account&lt;br&gt;Baseline&lt;br&gt;" style="outlineConnect=0;fontColor=#232F3E;gradientColor=#F34482;gradientDirection=north;fillColor=#BC1356;strokeColor=#ffffff;dashed=0;verticalLabelPosition=bottom;verticalAlign=top;align=center;html=1;fontSize=12;fontStyle=0;aspect=fixed;shape=mxgraph.aws4.resourceIcon;resIcon=mxgraph.aws4.cloudformation;labelBackgroundColor=#ffffff;" parent="1" vertex="1">
          <mxGeometry x="316" y="-569.5" width="78" height="78" as="geometry" />
        </mxCell>
        <mxCell id="UEzPUAAOIrF-is8g5C7q-182" value="AWS Service&lt;br&gt;Catalog&lt;br&gt;" style="outlineConnect=0;fontColor=#232F3E;gradientColor=#F34482;gradientDirection=north;fillColor=#BC1356;strokeColor=#ffffff;dashed=0;verticalLabelPosition=bottom;verticalAlign=top;align=center;html=1;fontSize=12;fontStyle=0;aspect=fixed;shape=mxgraph.aws4.resourceIcon;resIcon=mxgraph.aws4.service_catalog;labelBackgroundColor=#ffffff;" parent="1" vertex="1">
          <mxGeometry x="429" y="-569.5" width="78" height="78" as="geometry" />
        </mxCell>
        <mxCell id="UEzPUAAOIrF-is8g5C7q-183" value="AWS&lt;br&gt;Parameter&lt;br&gt;Store&lt;br&gt;" style="outlineConnect=0;fontColor=#232F3E;gradientColor=none;fillColor=#BC1356;strokeColor=none;dashed=0;verticalLabelPosition=bottom;verticalAlign=top;align=center;html=1;fontSize=12;fontStyle=0;aspect=fixed;pointerEvents=1;shape=mxgraph.aws4.parameter_store;labelBackgroundColor=#ffffff;" parent="1" vertex="1">
          <mxGeometry x="539" y="-569.5" width="75" height="78" as="geometry" />
        </mxCell>
        <mxCell id="UEzPUAAOIrF-is8g5C7q-184" value="Core OU" style="outlineConnect=0;fontColor=#232F3E;gradientColor=none;fillColor=#BC1356;strokeColor=none;dashed=0;verticalLabelPosition=bottom;verticalAlign=top;align=center;html=1;fontSize=12;fontStyle=0;aspect=fixed;pointerEvents=1;shape=mxgraph.aws4.resources;labelBackgroundColor=#ffffff;" parent="1" vertex="1">
          <mxGeometry x="705" y="-559.5" width="68" height="78" as="geometry" />
        </mxCell>
        <mxCell id="UEzPUAAOIrF-is8g5C7q-187" value="Account&lt;br&gt;Baseline&lt;br&gt;" style="outlineConnect=0;fontColor=#232F3E;gradientColor=#F34482;gradientDirection=north;fillColor=#BC1356;strokeColor=#ffffff;dashed=0;verticalLabelPosition=bottom;verticalAlign=top;align=center;html=1;fontSize=12;fontStyle=0;aspect=fixed;shape=mxgraph.aws4.resourceIcon;resIcon=mxgraph.aws4.cloudformation;labelBackgroundColor=#ffffff;" parent="1" vertex="1">
          <mxGeometry x="239" y="-297.5" width="78" height="78" as="geometry" />
        </mxCell>
        <mxCell id="UEzPUAAOIrF-is8g5C7q-188" value="Amazon VPC" style="outlineConnect=0;fontColor=#232F3E;gradientColor=#945DF2;gradientDirection=north;fillColor=#5A30B5;strokeColor=#ffffff;dashed=0;verticalLabelPosition=bottom;verticalAlign=top;align=center;html=1;fontSize=12;fontStyle=0;aspect=fixed;shape=mxgraph.aws4.resourceIcon;resIcon=mxgraph.aws4.vpc;labelBackgroundColor=#ffffff;" parent="1" vertex="1">
          <mxGeometry x="340" y="-298.5" width="78" height="78" as="geometry" />
        </mxCell>
        <mxCell id="UEzPUAAOIrF-is8g5C7q-189" value="Account&lt;br&gt;Baseline&lt;br&gt;" style="outlineConnect=0;fontColor=#232F3E;gradientColor=#F34482;gradientDirection=north;fillColor=#BC1356;strokeColor=#ffffff;dashed=0;verticalLabelPosition=bottom;verticalAlign=top;align=center;html=1;fontSize=12;fontStyle=0;aspect=fixed;shape=mxgraph.aws4.resourceIcon;resIcon=mxgraph.aws4.cloudformation;labelBackgroundColor=#ffffff;" parent="1" vertex="1">
          <mxGeometry x="479" y="-298.5" width="78" height="78" as="geometry" />
        </mxCell>
        <mxCell id="UEzPUAAOIrF-is8g5C7q-190" value="Aggregate&lt;br&gt;CloudTrail&lt;br&gt;and Config Logs&lt;br&gt;" style="outlineConnect=0;fontColor=#232F3E;gradientColor=none;fillColor=#5A30B5;strokeColor=none;dashed=0;verticalLabelPosition=bottom;verticalAlign=top;align=center;html=1;fontSize=12;fontStyle=0;aspect=fixed;pointerEvents=1;shape=mxgraph.aws4.flow_logs;labelBackgroundColor=#ffffff;" parent="1" vertex="1">
          <mxGeometry x="581" y="-299.5" width="78" height="78" as="geometry" />
        </mxCell>
        <mxCell id="UEzPUAAOIrF-is8g5C7q-191" value="Account&lt;br&gt;Baseline&lt;br&gt;" style="outlineConnect=0;fontColor=#232F3E;gradientColor=#F34482;gradientDirection=north;fillColor=#BC1356;strokeColor=#ffffff;dashed=0;verticalLabelPosition=bottom;verticalAlign=top;align=center;html=1;fontSize=12;fontStyle=0;aspect=fixed;shape=mxgraph.aws4.resourceIcon;resIcon=mxgraph.aws4.cloudformation;labelBackgroundColor=#ffffff;" parent="1" vertex="1">
          <mxGeometry x="740" y="-299.5" width="78" height="78" as="geometry" />
        </mxCell>
        <mxCell id="UEzPUAAOIrF-is8g5C7q-192" value="Security&lt;br&gt;Cross-Account&lt;br&gt;Roles&lt;br&gt;" style="outlineConnect=0;fontColor=#232F3E;gradientColor=none;fillColor=#C7131F;strokeColor=none;dashed=0;verticalLabelPosition=bottom;verticalAlign=top;align=center;html=1;fontSize=12;fontStyle=0;aspect=fixed;pointerEvents=1;shape=mxgraph.aws4.addon;labelBackgroundColor=#ffffff;" parent="1" vertex="1">
          <mxGeometry x="849" y="-280.5" width="78" height="40" as="geometry" />
        </mxCell>
        <mxCell id="UEzPUAAOIrF-is8g5C7q-193" value="Amazon&lt;br&gt;GuardDuty&lt;br&gt;" style="outlineConnect=0;fontColor=#232F3E;gradientColor=#F54749;gradientDirection=north;fillColor=#C7131F;strokeColor=#ffffff;dashed=0;verticalLabelPosition=bottom;verticalAlign=top;align=center;html=1;fontSize=12;fontStyle=0;aspect=fixed;shape=mxgraph.aws4.resourceIcon;resIcon=mxgraph.aws4.guardduty;labelBackgroundColor=#ffffff;" parent="1" vertex="1">
          <mxGeometry x="740" y="-169.5" width="78" height="78" as="geometry" />
        </mxCell>
        <mxCell id="UEzPUAAOIrF-is8g5C7q-194" value="Amazon SNS" style="outlineConnect=0;fontColor=#232F3E;gradientColor=#F34482;gradientDirection=north;fillColor=#BC1356;strokeColor=#ffffff;dashed=0;verticalLabelPosition=bottom;verticalAlign=top;align=center;html=1;fontSize=12;fontStyle=0;aspect=fixed;shape=mxgraph.aws4.resourceIcon;resIcon=mxgraph.aws4.sns;labelBackgroundColor=#ffffff;" parent="1" vertex="1">
          <mxGeometry x="849" y="-169.5" width="78" height="78" as="geometry" />
        </mxCell>
      </root>
    </mxGraphModel>
  </diagram>
  <diagram id="o75P0Q5ZK42fsRuZiEOk" name="Page-2">
    <mxGraphModel dx="1050" dy="621" grid="1" gridSize="10" guides="1" tooltips="1" connect="1" arrows="1" fold="1" page="1" pageScale="1" pageWidth="850" pageHeight="1100" math="0" shadow="0">
      <root>
        <mxCell id="0" />
        <mxCell id="1" parent="0" />
        <mxCell id="eP2y1c9x1j_jv11M6xPY-23" value="Public subnet" style="points=[[0,0],[0.25,0],[0.5,0],[0.75,0],[1,0],[1,0.25],[1,0.5],[1,0.75],[1,1],[0.75,1],[0.5,1],[0.25,1],[0,1],[0,0.75],[0,0.5],[0,0.25]];outlineConnect=0;gradientColor=none;html=1;whiteSpace=wrap;fontSize=12;fontStyle=0;container=1;pointerEvents=0;collapsible=0;recursiveResize=0;shape=mxgraph.aws4.group;grIcon=mxgraph.aws4.group_security_group;grStroke=0;strokeColor=#7AA116;fillColor=#F2F6E8;verticalAlign=top;align=left;spacingLeft=30;fontColor=#248814;dashed=0;" parent="1" vertex="1">
          <mxGeometry x="480" y="40" width="340" height="520" as="geometry" />
        </mxCell>
        <mxCell id="eP2y1c9x1j_jv11M6xPY-16" value="" style="edgeStyle=orthogonalEdgeStyle;html=1;endArrow=block;elbow=vertical;startArrow=block;startFill=1;endFill=1;strokeColor=#545B64;rounded=0;exitX=0.9;exitY=0.5;exitDx=0;exitDy=0;exitPerimeter=0;entryX=0;entryY=0.5;entryDx=0;entryDy=0;entryPerimeter=0;" parent="1" source="ljrfeEIR2qaIHG3Y4Q7W-7" target="du1dsJiziYrlPOdKR-oG-1" edge="1">
          <mxGeometry width="100" relative="1" as="geometry">
            <mxPoint x="180.5" y="280" as="sourcePoint" />
            <mxPoint x="254" y="160" as="targetPoint" />
          </mxGeometry>
        </mxCell>
        <mxCell id="eP2y1c9x1j_jv11M6xPY-18" value="Availability Zone" style="fillColor=none;strokeColor=#147EBA;dashed=1;verticalAlign=top;fontStyle=0;fontColor=#147EBA;whiteSpace=wrap;html=1;" parent="1" vertex="1">
          <mxGeometry x="460" y="10" width="380" height="570" as="geometry" />
        </mxCell>
        <mxCell id="eP2y1c9x1j_jv11M6xPY-21" value="" style="outlineConnect=0;dashed=0;verticalLabelPosition=bottom;verticalAlign=top;align=center;html=1;shape=mxgraph.aws3.application_load_balancer;fillColor=#F58534;gradientColor=none;" parent="1" vertex="1">
          <mxGeometry x="630.5" y="327" width="69" height="72" as="geometry" />
        </mxCell>
        <mxCell id="eP2y1c9x1j_jv11M6xPY-22" value="ALB&lt;br&gt;+ Health Checks&lt;div&gt;+ Multi AZ&lt;/div&gt;" style="text;html=1;align=center;verticalAlign=middle;whiteSpace=wrap;rounded=0;strokeColor=#F7F7F7;" parent="1" vertex="1">
          <mxGeometry x="600" y="416" width="130" height="30" as="geometry" />
        </mxCell>
        <mxCell id="eP2y1c9x1j_jv11M6xPY-26" value="" style="edgeStyle=orthogonalEdgeStyle;html=1;endArrow=block;elbow=vertical;startArrow=block;startFill=1;endFill=1;strokeColor=#545B64;rounded=0;entryX=0;entryY=0.5;entryDx=0;entryDy=0;entryPerimeter=0;exitX=1;exitY=0.5;exitDx=0;exitDy=0;exitPerimeter=0;" parent="1" source="du1dsJiziYrlPOdKR-oG-1" target="eP2y1c9x1j_jv11M6xPY-21" edge="1">
          <mxGeometry width="100" relative="1" as="geometry">
            <mxPoint x="430" y="170" as="sourcePoint" />
            <mxPoint x="570" y="280" as="targetPoint" />
          </mxGeometry>
        </mxCell>
        <mxCell id="eP2y1c9x1j_jv11M6xPY-42" value="Availability Zone" style="fillColor=none;strokeColor=#147EBA;dashed=1;verticalAlign=top;fontStyle=0;fontColor=#147EBA;whiteSpace=wrap;html=1;" parent="1" vertex="1">
          <mxGeometry x="940" y="160" width="370" height="380" as="geometry" />
        </mxCell>
        <mxCell id="eP2y1c9x1j_jv11M6xPY-43" value="Private subnet" style="points=[[0,0],[0.25,0],[0.5,0],[0.75,0],[1,0],[1,0.25],[1,0.5],[1,0.75],[1,1],[0.75,1],[0.5,1],[0.25,1],[0,1],[0,0.75],[0,0.5],[0,0.25]];outlineConnect=0;gradientColor=none;html=1;whiteSpace=wrap;fontSize=12;fontStyle=0;container=1;pointerEvents=0;collapsible=0;recursiveResize=0;shape=mxgraph.aws4.group;grIcon=mxgraph.aws4.group_security_group;grStroke=0;strokeColor=#00A4A6;fillColor=#E6F6F7;verticalAlign=top;align=left;spacingLeft=30;fontColor=#147EBA;dashed=0;" parent="1" vertex="1">
          <mxGeometry x="970" y="200" width="320" height="330" as="geometry" />
        </mxCell>
        <mxCell id="eP2y1c9x1j_jv11M6xPY-36" value="" style="outlineConnect=0;dashed=0;verticalLabelPosition=bottom;verticalAlign=top;align=center;html=1;shape=mxgraph.aws3.ec2;fillColor=#F58534;gradientColor=none;" parent="1" vertex="1">
          <mxGeometry x="1090" y="316.5" width="76.5" height="93" as="geometry" />
        </mxCell>
        <mxCell id="eP2y1c9x1j_jv11M6xPY-48" value="" style="edgeStyle=orthogonalEdgeStyle;html=1;endArrow=block;elbow=vertical;startArrow=block;startFill=1;endFill=1;strokeColor=#545B64;rounded=0;exitX=1;exitY=0.5;exitDx=0;exitDy=0;exitPerimeter=0;entryX=0;entryY=0.5;entryDx=0;entryDy=0;entryPerimeter=0;" parent="1" source="eP2y1c9x1j_jv11M6xPY-21" target="eP2y1c9x1j_jv11M6xPY-36" edge="1">
          <mxGeometry width="100" relative="1" as="geometry">
            <mxPoint x="800" y="430" as="sourcePoint" />
            <mxPoint x="900" y="430" as="targetPoint" />
          </mxGeometry>
        </mxCell>
        <mxCell id="eP2y1c9x1j_jv11M6xPY-51" value="Auto Scaling group" style="points=[[0,0],[0.25,0],[0.5,0],[0.75,0],[1,0],[1,0.25],[1,0.5],[1,0.75],[1,1],[0.75,1],[0.5,1],[0.25,1],[0,1],[0,0.75],[0,0.5],[0,0.25]];outlineConnect=0;gradientColor=none;html=1;whiteSpace=wrap;fontSize=12;fontStyle=0;container=1;pointerEvents=0;collapsible=0;recursiveResize=0;shape=mxgraph.aws4.groupCenter;grIcon=mxgraph.aws4.group_auto_scaling_group;grStroke=1;strokeColor=#D86613;fillColor=none;verticalAlign=top;align=center;fontColor=#D86613;dashed=1;spacingTop=25;" parent="1" vertex="1">
          <mxGeometry x="910" y="90" width="420" height="480" as="geometry" />
        </mxCell>
        <mxCell id="eP2y1c9x1j_jv11M6xPY-35" value="EC2 + SG&lt;br&gt;+ Multi AZ&lt;br&gt;+ ASG&amp;nbsp;+ reserverd instances &lt;br&gt;(ex: min capacity 2 instances)" style="text;html=1;align=center;verticalAlign=middle;whiteSpace=wrap;rounded=0;strokeColor=#F7F7F7;" parent="eP2y1c9x1j_jv11M6xPY-51" vertex="1">
          <mxGeometry x="100" y="319.5" width="260" height="90" as="geometry" />
        </mxCell>
        <mxCell id="ljrfeEIR2qaIHG3Y4Q7W-5" value="Route 53&lt;br&gt;DNS Query&lt;br&gt;for eric-app.com&lt;br&gt;Alias record" style="text;html=1;align=center;verticalAlign=middle;whiteSpace=wrap;rounded=0;strokeColor=#F7F7F7;" vertex="1" parent="1">
          <mxGeometry x="280" y="436" width="130" height="30" as="geometry" />
        </mxCell>
        <mxCell id="ljrfeEIR2qaIHG3Y4Q7W-7" value="" style="shape=actor;whiteSpace=wrap;html=1;" vertex="1" parent="1">
          <mxGeometry x="105" y="333" width="40" height="60" as="geometry" />
        </mxCell>
        <mxCell id="ljrfeEIR2qaIHG3Y4Q7W-8" value="User" style="text;html=1;align=center;verticalAlign=middle;whiteSpace=wrap;rounded=0;strokeColor=#F7F7F7;" vertex="1" parent="1">
          <mxGeometry x="60" y="406" width="130" height="30" as="geometry" />
        </mxCell>
        <mxCell id="du1dsJiziYrlPOdKR-oG-1" value="" style="sketch=0;points=[[0,0,0],[0.25,0,0],[0.5,0,0],[0.75,0,0],[1,0,0],[0,1,0],[0.25,1,0],[0.5,1,0],[0.75,1,0],[1,1,0],[0,0.25,0],[0,0.5,0],[0,0.75,0],[1,0.25,0],[1,0.5,0],[1,0.75,0]];outlineConnect=0;fontColor=#232F3E;fillColor=#8C4FFF;strokeColor=#ffffff;dashed=0;verticalLabelPosition=bottom;verticalAlign=top;align=center;html=1;fontSize=12;fontStyle=0;aspect=fixed;shape=mxgraph.aws4.resourceIcon;resIcon=mxgraph.aws4.route_53;" vertex="1" parent="1">
          <mxGeometry x="306" y="324" width="78" height="78" as="geometry" />
        </mxCell>
      </root>
    </mxGraphModel>
  </diagram>
  <diagram name="Page-3" id="jXGCXvRaY1n1P9pmIuXs">
    <mxGraphModel dx="2085" dy="731" grid="1" gridSize="10" guides="1" tooltips="1" connect="1" arrows="1" fold="1" page="1" pageScale="1" pageWidth="850" pageHeight="1100" math="0" shadow="0">
      <root>
        <mxCell id="NG33qlRyZaleBmlCGcsq-0" />
        <mxCell id="NG33qlRyZaleBmlCGcsq-1" parent="NG33qlRyZaleBmlCGcsq-0" />
        <mxCell id="NG33qlRyZaleBmlCGcsq-2" value="Public subnet" style="points=[[0,0],[0.25,0],[0.5,0],[0.75,0],[1,0],[1,0.25],[1,0.5],[1,0.75],[1,1],[0.75,1],[0.5,1],[0.25,1],[0,1],[0,0.75],[0,0.5],[0,0.25]];outlineConnect=0;gradientColor=none;html=1;whiteSpace=wrap;fontSize=12;fontStyle=0;container=1;pointerEvents=0;collapsible=0;recursiveResize=0;shape=mxgraph.aws4.group;grIcon=mxgraph.aws4.group_security_group;grStroke=0;strokeColor=#7AA116;fillColor=#F2F6E8;verticalAlign=top;align=left;spacingLeft=30;fontColor=#248814;dashed=0;" parent="NG33qlRyZaleBmlCGcsq-1" vertex="1">
          <mxGeometry x="480" y="40" width="340" height="520" as="geometry" />
        </mxCell>
        <mxCell id="NG33qlRyZaleBmlCGcsq-7" value="Availability Zone" style="fillColor=none;strokeColor=#147EBA;dashed=1;verticalAlign=top;fontStyle=0;fontColor=#147EBA;whiteSpace=wrap;html=1;" parent="NG33qlRyZaleBmlCGcsq-1" vertex="1">
          <mxGeometry x="460" y="10" width="380" height="570" as="geometry" />
        </mxCell>
        <mxCell id="NG33qlRyZaleBmlCGcsq-8" value="" style="outlineConnect=0;dashed=0;verticalLabelPosition=bottom;verticalAlign=top;align=center;html=1;shape=mxgraph.aws3.application_load_balancer;fillColor=#F58534;gradientColor=none;" parent="NG33qlRyZaleBmlCGcsq-1" vertex="1">
          <mxGeometry x="610.5" y="324" width="69" height="72" as="geometry" />
        </mxCell>
        <mxCell id="NG33qlRyZaleBmlCGcsq-9" value="ALB&lt;br&gt;+ Health Checks&lt;div&gt;+ Multi AZ&lt;/div&gt;" style="text;html=1;align=center;verticalAlign=middle;whiteSpace=wrap;rounded=0;strokeColor=#F7F7F7;" parent="NG33qlRyZaleBmlCGcsq-1" vertex="1">
          <mxGeometry x="580" y="410" width="130" height="30" as="geometry" />
        </mxCell>
        <mxCell id="NG33qlRyZaleBmlCGcsq-10" value="" style="edgeStyle=orthogonalEdgeStyle;html=1;endArrow=block;elbow=vertical;startArrow=block;startFill=1;endFill=1;strokeColor=#545B64;rounded=0;entryX=0;entryY=0.5;entryDx=0;entryDy=0;entryPerimeter=0;" parent="NG33qlRyZaleBmlCGcsq-1" source="Gp0l07o3LZVN-4uiVc9U-5" target="NG33qlRyZaleBmlCGcsq-8" edge="1">
          <mxGeometry width="100" relative="1" as="geometry">
            <mxPoint x="353.9999999999998" y="360" as="sourcePoint" />
            <mxPoint x="570" y="280" as="targetPoint" />
          </mxGeometry>
        </mxCell>
        <mxCell id="NG33qlRyZaleBmlCGcsq-11" value="Availability Zone" style="fillColor=none;strokeColor=#147EBA;dashed=1;verticalAlign=top;fontStyle=0;fontColor=#147EBA;whiteSpace=wrap;html=1;" parent="NG33qlRyZaleBmlCGcsq-1" vertex="1">
          <mxGeometry x="940" y="160" width="370" height="380" as="geometry" />
        </mxCell>
        <mxCell id="NG33qlRyZaleBmlCGcsq-12" value="Private subnet" style="points=[[0,0],[0.25,0],[0.5,0],[0.75,0],[1,0],[1,0.25],[1,0.5],[1,0.75],[1,1],[0.75,1],[0.5,1],[0.25,1],[0,1],[0,0.75],[0,0.5],[0,0.25]];outlineConnect=0;gradientColor=none;html=1;whiteSpace=wrap;fontSize=12;fontStyle=0;container=1;pointerEvents=0;collapsible=0;recursiveResize=0;shape=mxgraph.aws4.group;grIcon=mxgraph.aws4.group_security_group;grStroke=0;strokeColor=#00A4A6;fillColor=#E6F6F7;verticalAlign=top;align=left;spacingLeft=30;fontColor=#147EBA;dashed=0;" parent="NG33qlRyZaleBmlCGcsq-1" vertex="1">
          <mxGeometry x="970" y="200" width="320" height="330" as="geometry" />
        </mxCell>
        <mxCell id="NG33qlRyZaleBmlCGcsq-13" value="" style="outlineConnect=0;dashed=0;verticalLabelPosition=bottom;verticalAlign=top;align=center;html=1;shape=mxgraph.aws3.ec2;fillColor=#F58534;gradientColor=none;" parent="NG33qlRyZaleBmlCGcsq-1" vertex="1">
          <mxGeometry x="1091.75" y="313.5" width="76.5" height="93" as="geometry" />
        </mxCell>
        <mxCell id="NG33qlRyZaleBmlCGcsq-14" value="" style="edgeStyle=orthogonalEdgeStyle;html=1;endArrow=block;elbow=vertical;startArrow=block;startFill=1;endFill=1;strokeColor=#545B64;rounded=0;exitX=1;exitY=0.5;exitDx=0;exitDy=0;exitPerimeter=0;entryX=0;entryY=0.5;entryDx=0;entryDy=0;entryPerimeter=0;" parent="NG33qlRyZaleBmlCGcsq-1" source="NG33qlRyZaleBmlCGcsq-8" target="NG33qlRyZaleBmlCGcsq-13" edge="1">
          <mxGeometry width="100" relative="1" as="geometry">
            <mxPoint x="800" y="430" as="sourcePoint" />
            <mxPoint x="900" y="430" as="targetPoint" />
          </mxGeometry>
        </mxCell>
        <mxCell id="NG33qlRyZaleBmlCGcsq-15" value="Auto Scaling group" style="points=[[0,0],[0.25,0],[0.5,0],[0.75,0],[1,0],[1,0.25],[1,0.5],[1,0.75],[1,1],[0.75,1],[0.5,1],[0.25,1],[0,1],[0,0.75],[0,0.5],[0,0.25]];outlineConnect=0;gradientColor=none;html=1;whiteSpace=wrap;fontSize=12;fontStyle=0;container=1;pointerEvents=0;collapsible=0;recursiveResize=0;shape=mxgraph.aws4.groupCenter;grIcon=mxgraph.aws4.group_auto_scaling_group;grStroke=1;strokeColor=#D86613;fillColor=none;verticalAlign=top;align=center;fontColor=#D86613;dashed=1;spacingTop=25;" parent="NG33qlRyZaleBmlCGcsq-1" vertex="1">
          <mxGeometry x="910" y="90" width="420" height="480" as="geometry" />
        </mxCell>
        <mxCell id="NG33qlRyZaleBmlCGcsq-16" value="EC2 + SG&lt;br&gt;+ Multi AZ&lt;br&gt;+ ASG&amp;nbsp;+ reserverd instances &lt;br&gt;(ex: min capacity 2 instances)" style="text;html=1;align=center;verticalAlign=middle;whiteSpace=wrap;rounded=0;strokeColor=#F7F7F7;" parent="NG33qlRyZaleBmlCGcsq-15" vertex="1">
          <mxGeometry x="100" y="319.5" width="260" height="90" as="geometry" />
        </mxCell>
        <mxCell id="j38pQp1qEm2R3bTtkKau-0" value="" style="sketch=0;outlineConnect=0;fontColor=#232F3E;gradientColor=none;fillColor=#C925D1;strokeColor=none;dashed=0;verticalLabelPosition=bottom;verticalAlign=top;align=center;html=1;fontSize=12;fontStyle=0;aspect=fixed;pointerEvents=1;shape=mxgraph.aws4.elasticache_for_redis;" parent="NG33qlRyZaleBmlCGcsq-1" vertex="1">
          <mxGeometry x="1410" y="131" width="78" height="69" as="geometry" />
        </mxCell>
        <mxCell id="j38pQp1qEm2R3bTtkKau-2" value="ElastiCache&amp;nbsp;&lt;br&gt;for Redis" style="text;html=1;align=center;verticalAlign=middle;whiteSpace=wrap;rounded=0;strokeColor=#F7F7F7;" parent="NG33qlRyZaleBmlCGcsq-1" vertex="1">
          <mxGeometry x="1384" y="214" width="130" height="30" as="geometry" />
        </mxCell>
        <mxCell id="j38pQp1qEm2R3bTtkKau-5" value="RDS Multi AZ DB Cluster&lt;br&gt;+ Read Replicas" style="text;html=1;align=center;verticalAlign=middle;whiteSpace=wrap;rounded=0;strokeColor=#F7F7F7;" parent="NG33qlRyZaleBmlCGcsq-1" vertex="1">
          <mxGeometry x="1400" y="400" width="144" height="30" as="geometry" />
        </mxCell>
        <mxCell id="j38pQp1qEm2R3bTtkKau-12" value="" style="sketch=0;points=[[0,0,0],[0.25,0,0],[0.5,0,0],[0.75,0,0],[1,0,0],[0,1,0],[0.25,1,0],[0.5,1,0],[0.75,1,0],[1,1,0],[0,0.25,0],[0,0.5,0],[0,0.75,0],[1,0.25,0],[1,0.5,0],[1,0.75,0]];outlineConnect=0;fontColor=#232F3E;fillColor=#C925D1;strokeColor=#ffffff;dashed=0;verticalLabelPosition=bottom;verticalAlign=top;align=center;html=1;fontSize=12;fontStyle=0;aspect=fixed;shape=mxgraph.aws4.resourceIcon;resIcon=mxgraph.aws4.rds;" parent="NG33qlRyZaleBmlCGcsq-1" vertex="1">
          <mxGeometry x="1420" y="321" width="78" height="78" as="geometry" />
        </mxCell>
        <mxCell id="3olqEFsmpg8vGxMpB8Ze-3" value="" style="edgeStyle=orthogonalEdgeStyle;html=1;endArrow=block;elbow=vertical;startArrow=block;startFill=1;endFill=1;strokeColor=#545B64;rounded=0;exitX=1;exitY=0.5;exitDx=0;exitDy=0;exitPerimeter=0;entryX=0;entryY=0.5;entryDx=0;entryDy=0;entryPerimeter=0;" edge="1" parent="NG33qlRyZaleBmlCGcsq-1" source="NG33qlRyZaleBmlCGcsq-13" target="j38pQp1qEm2R3bTtkKau-12">
          <mxGeometry width="100" relative="1" as="geometry">
            <mxPoint x="1240" y="340" as="sourcePoint" />
            <mxPoint x="1340" y="340" as="targetPoint" />
          </mxGeometry>
        </mxCell>
        <mxCell id="3olqEFsmpg8vGxMpB8Ze-4" value="" style="edgeStyle=orthogonalEdgeStyle;html=1;endArrow=block;elbow=vertical;startArrow=block;startFill=1;endFill=1;strokeColor=#545B64;rounded=0;exitX=1;exitY=0.5;exitDx=0;exitDy=0;exitPerimeter=0;" edge="1" parent="NG33qlRyZaleBmlCGcsq-1" source="NG33qlRyZaleBmlCGcsq-13" target="j38pQp1qEm2R3bTtkKau-0">
          <mxGeometry width="100" relative="1" as="geometry">
            <mxPoint x="1240" y="340" as="sourcePoint" />
            <mxPoint x="1380" y="160" as="targetPoint" />
            <Array as="points">
              <mxPoint x="1340" y="360" />
              <mxPoint x="1340" y="160" />
            </Array>
          </mxGeometry>
        </mxCell>
        <mxCell id="Gp0l07o3LZVN-4uiVc9U-0" value="" style="edgeStyle=orthogonalEdgeStyle;html=1;endArrow=block;elbow=vertical;startArrow=block;startFill=1;endFill=1;strokeColor=#545B64;rounded=0;exitX=0.9;exitY=0.5;exitDx=0;exitDy=0;exitPerimeter=0;entryX=0;entryY=0.5;entryDx=0;entryDy=0;entryPerimeter=0;" edge="1" parent="NG33qlRyZaleBmlCGcsq-1" source="Gp0l07o3LZVN-4uiVc9U-2" target="Gp0l07o3LZVN-4uiVc9U-4">
          <mxGeometry width="100" relative="1" as="geometry">
            <mxPoint x="-164.5" y="277" as="sourcePoint" />
            <mxPoint x="-91" y="157" as="targetPoint" />
          </mxGeometry>
        </mxCell>
        <mxCell id="Gp0l07o3LZVN-4uiVc9U-1" value="Route 53&lt;br&gt;DNS Query&lt;br&gt;for eric-app.com&lt;br&gt;Alias record" style="text;html=1;align=center;verticalAlign=middle;whiteSpace=wrap;rounded=0;strokeColor=#F7F7F7;" vertex="1" parent="NG33qlRyZaleBmlCGcsq-1">
          <mxGeometry x="-65" y="433" width="130" height="30" as="geometry" />
        </mxCell>
        <mxCell id="Gp0l07o3LZVN-4uiVc9U-2" value="" style="shape=actor;whiteSpace=wrap;html=1;" vertex="1" parent="NG33qlRyZaleBmlCGcsq-1">
          <mxGeometry x="-240" y="330" width="40" height="60" as="geometry" />
        </mxCell>
        <mxCell id="Gp0l07o3LZVN-4uiVc9U-3" value="User" style="text;html=1;align=center;verticalAlign=middle;whiteSpace=wrap;rounded=0;strokeColor=#F7F7F7;" vertex="1" parent="NG33qlRyZaleBmlCGcsq-1">
          <mxGeometry x="-290" y="406" width="130" height="30" as="geometry" />
        </mxCell>
        <mxCell id="Gp0l07o3LZVN-4uiVc9U-4" value="" style="sketch=0;points=[[0,0,0],[0.25,0,0],[0.5,0,0],[0.75,0,0],[1,0,0],[0,1,0],[0.25,1,0],[0.5,1,0],[0.75,1,0],[1,1,0],[0,0.25,0],[0,0.5,0],[0,0.75,0],[1,0.25,0],[1,0.5,0],[1,0.75,0]];outlineConnect=0;fontColor=#232F3E;fillColor=#8C4FFF;strokeColor=#ffffff;dashed=0;verticalLabelPosition=bottom;verticalAlign=top;align=center;html=1;fontSize=12;fontStyle=0;aspect=fixed;shape=mxgraph.aws4.resourceIcon;resIcon=mxgraph.aws4.route_53;" vertex="1" parent="NG33qlRyZaleBmlCGcsq-1">
          <mxGeometry x="-39" y="321" width="78" height="78" as="geometry" />
        </mxCell>
        <mxCell id="Gp0l07o3LZVN-4uiVc9U-5" value="" style="sketch=0;points=[[0,0,0],[0.25,0,0],[0.5,0,0],[0.75,0,0],[1,0,0],[0,1,0],[0.25,1,0],[0.5,1,0],[0.75,1,0],[1,1,0],[0,0.25,0],[0,0.5,0],[0,0.75,0],[1,0.25,0],[1,0.5,0],[1,0.75,0]];outlineConnect=0;fontColor=#232F3E;fillColor=#8C4FFF;strokeColor=#ffffff;dashed=0;verticalLabelPosition=bottom;verticalAlign=top;align=center;html=1;fontSize=12;fontStyle=0;aspect=fixed;shape=mxgraph.aws4.resourceIcon;resIcon=mxgraph.aws4.cloudfront;" vertex="1" parent="NG33qlRyZaleBmlCGcsq-1">
          <mxGeometry x="250" y="321" width="78" height="78" as="geometry" />
        </mxCell>
        <mxCell id="Gp0l07o3LZVN-4uiVc9U-6" value="" style="edgeStyle=orthogonalEdgeStyle;html=1;endArrow=block;elbow=vertical;startArrow=block;startFill=1;endFill=1;strokeColor=#545B64;rounded=0;exitX=1;exitY=0.5;exitDx=0;exitDy=0;exitPerimeter=0;entryX=0;entryY=0.5;entryDx=0;entryDy=0;entryPerimeter=0;" edge="1" parent="NG33qlRyZaleBmlCGcsq-1" source="Gp0l07o3LZVN-4uiVc9U-4" target="Gp0l07o3LZVN-4uiVc9U-5">
          <mxGeometry width="100" relative="1" as="geometry">
            <mxPoint x="50" y="359.66" as="sourcePoint" />
            <mxPoint x="215" y="359.66" as="targetPoint" />
          </mxGeometry>
        </mxCell>
        <mxCell id="Gp0l07o3LZVN-4uiVc9U-7" value="CloudFront" style="text;html=1;align=center;verticalAlign=middle;whiteSpace=wrap;rounded=0;strokeColor=#F7F7F7;" vertex="1" parent="NG33qlRyZaleBmlCGcsq-1">
          <mxGeometry x="224" y="410" width="130" height="30" as="geometry" />
        </mxCell>
        <mxCell id="Gp0l07o3LZVN-4uiVc9U-8" value="" style="sketch=0;points=[[0,0,0],[0.25,0,0],[0.5,0,0],[0.75,0,0],[1,0,0],[0,1,0],[0.25,1,0],[0.5,1,0],[0.75,1,0],[1,1,0],[0,0.25,0],[0,0.5,0],[0,0.75,0],[1,0.25,0],[1,0.5,0],[1,0.75,0]];outlineConnect=0;fontColor=#232F3E;fillColor=#7AA116;strokeColor=#ffffff;dashed=0;verticalLabelPosition=bottom;verticalAlign=top;align=center;html=1;fontSize=12;fontStyle=0;aspect=fixed;shape=mxgraph.aws4.resourceIcon;resIcon=mxgraph.aws4.s3;" vertex="1" parent="NG33qlRyZaleBmlCGcsq-1">
          <mxGeometry x="606" y="640" width="78" height="78" as="geometry" />
        </mxCell>
        <mxCell id="Gp0l07o3LZVN-4uiVc9U-9" value="S3" style="text;html=1;align=center;verticalAlign=middle;whiteSpace=wrap;rounded=0;strokeColor=#F7F7F7;" vertex="1" parent="NG33qlRyZaleBmlCGcsq-1">
          <mxGeometry x="580" y="730" width="130" height="30" as="geometry" />
        </mxCell>
        <mxCell id="Gp0l07o3LZVN-4uiVc9U-10" value="" style="edgeStyle=orthogonalEdgeStyle;html=1;endArrow=block;elbow=vertical;startArrow=block;startFill=1;endFill=1;strokeColor=#545B64;rounded=0;exitX=1;exitY=0.5;exitDx=0;exitDy=0;exitPerimeter=0;" edge="1" parent="NG33qlRyZaleBmlCGcsq-1" source="Gp0l07o3LZVN-4uiVc9U-5" target="Gp0l07o3LZVN-4uiVc9U-8">
          <mxGeometry width="100" relative="1" as="geometry">
            <mxPoint x="328.5" y="510" as="sourcePoint" />
            <mxPoint x="550" y="680" as="targetPoint" />
            <Array as="points">
              <mxPoint x="420" y="360" />
              <mxPoint x="420" y="680" />
              <mxPoint x="550" y="680" />
              <mxPoint x="550" y="679" />
            </Array>
          </mxGeometry>
        </mxCell>
      </root>
    </mxGraphModel>
  </diagram>
  <diagram name="Page-4" id="KHKJ6jr-z5-Dj1N6sbJa">
    <mxGraphModel dx="1900" dy="621" grid="1" gridSize="10" guides="1" tooltips="1" connect="1" arrows="1" fold="1" page="1" pageScale="1" pageWidth="850" pageHeight="1100" math="0" shadow="0">
      <root>
        <mxCell id="0ka2nRvzRmum5Gnwa8mM-0" />
        <mxCell id="0ka2nRvzRmum5Gnwa8mM-1" parent="0ka2nRvzRmum5Gnwa8mM-0" />
        <mxCell id="0ka2nRvzRmum5Gnwa8mM-2" value="Public subnet" style="points=[[0,0],[0.25,0],[0.5,0],[0.75,0],[1,0],[1,0.25],[1,0.5],[1,0.75],[1,1],[0.75,1],[0.5,1],[0.25,1],[0,1],[0,0.75],[0,0.5],[0,0.25]];outlineConnect=0;gradientColor=none;html=1;whiteSpace=wrap;fontSize=12;fontStyle=0;container=1;pointerEvents=0;collapsible=0;recursiveResize=0;shape=mxgraph.aws4.group;grIcon=mxgraph.aws4.group_security_group;grStroke=0;strokeColor=#7AA116;fillColor=#F2F6E8;verticalAlign=top;align=left;spacingLeft=30;fontColor=#248814;dashed=0;" vertex="1" parent="0ka2nRvzRmum5Gnwa8mM-1">
          <mxGeometry x="480" y="40" width="340" height="520" as="geometry" />
        </mxCell>
        <mxCell id="0ka2nRvzRmum5Gnwa8mM-3" value="Availability Zone" style="fillColor=none;strokeColor=#147EBA;dashed=1;verticalAlign=top;fontStyle=0;fontColor=#147EBA;whiteSpace=wrap;html=1;" vertex="1" parent="0ka2nRvzRmum5Gnwa8mM-1">
          <mxGeometry x="460" y="10" width="380" height="570" as="geometry" />
        </mxCell>
        <mxCell id="0ka2nRvzRmum5Gnwa8mM-4" value="" style="outlineConnect=0;dashed=0;verticalLabelPosition=bottom;verticalAlign=top;align=center;html=1;shape=mxgraph.aws3.application_load_balancer;fillColor=#F58534;gradientColor=none;" vertex="1" parent="0ka2nRvzRmum5Gnwa8mM-1">
          <mxGeometry x="610.5" y="324" width="69" height="72" as="geometry" />
        </mxCell>
        <mxCell id="0ka2nRvzRmum5Gnwa8mM-5" value="ALB&lt;br&gt;+ Health Checks&lt;div&gt;+ Multi AZ&lt;/div&gt;" style="text;html=1;align=center;verticalAlign=middle;whiteSpace=wrap;rounded=0;strokeColor=#F7F7F7;" vertex="1" parent="0ka2nRvzRmum5Gnwa8mM-1">
          <mxGeometry x="580" y="410" width="130" height="30" as="geometry" />
        </mxCell>
        <mxCell id="0ka2nRvzRmum5Gnwa8mM-6" value="" style="edgeStyle=orthogonalEdgeStyle;html=1;endArrow=block;elbow=vertical;startArrow=block;startFill=1;endFill=1;strokeColor=#545B64;rounded=0;entryX=0;entryY=0.5;entryDx=0;entryDy=0;entryPerimeter=0;" edge="1" parent="0ka2nRvzRmum5Gnwa8mM-1" source="0ka2nRvzRmum5Gnwa8mM-29" target="0ka2nRvzRmum5Gnwa8mM-4">
          <mxGeometry width="100" relative="1" as="geometry">
            <mxPoint x="353.9999999999998" y="360" as="sourcePoint" />
            <mxPoint x="570" y="280" as="targetPoint" />
          </mxGeometry>
        </mxCell>
        <mxCell id="0ka2nRvzRmum5Gnwa8mM-7" value="Availability Zone" style="fillColor=none;strokeColor=#147EBA;dashed=1;verticalAlign=top;fontStyle=0;fontColor=#147EBA;whiteSpace=wrap;html=1;" vertex="1" parent="0ka2nRvzRmum5Gnwa8mM-1">
          <mxGeometry x="940" y="160" width="370" height="380" as="geometry" />
        </mxCell>
        <mxCell id="0ka2nRvzRmum5Gnwa8mM-8" value="Private subnet" style="points=[[0,0],[0.25,0],[0.5,0],[0.75,0],[1,0],[1,0.25],[1,0.5],[1,0.75],[1,1],[0.75,1],[0.5,1],[0.25,1],[0,1],[0,0.75],[0,0.5],[0,0.25]];outlineConnect=0;gradientColor=none;html=1;whiteSpace=wrap;fontSize=12;fontStyle=0;container=1;pointerEvents=0;collapsible=0;recursiveResize=0;shape=mxgraph.aws4.group;grIcon=mxgraph.aws4.group_security_group;grStroke=0;strokeColor=#00A4A6;fillColor=#E6F6F7;verticalAlign=top;align=left;spacingLeft=30;fontColor=#147EBA;dashed=0;" vertex="1" parent="0ka2nRvzRmum5Gnwa8mM-1">
          <mxGeometry x="970" y="200" width="320" height="330" as="geometry" />
        </mxCell>
        <mxCell id="0ka2nRvzRmum5Gnwa8mM-9" value="" style="outlineConnect=0;dashed=0;verticalLabelPosition=bottom;verticalAlign=top;align=center;html=1;shape=mxgraph.aws3.ec2;fillColor=#F58534;gradientColor=none;" vertex="1" parent="0ka2nRvzRmum5Gnwa8mM-1">
          <mxGeometry x="1091.75" y="313.5" width="76.5" height="93" as="geometry" />
        </mxCell>
        <mxCell id="0ka2nRvzRmum5Gnwa8mM-10" value="" style="edgeStyle=orthogonalEdgeStyle;html=1;endArrow=block;elbow=vertical;startArrow=block;startFill=1;endFill=1;strokeColor=#545B64;rounded=0;exitX=1;exitY=0.5;exitDx=0;exitDy=0;exitPerimeter=0;entryX=0;entryY=0.5;entryDx=0;entryDy=0;entryPerimeter=0;" edge="1" parent="0ka2nRvzRmum5Gnwa8mM-1" source="0ka2nRvzRmum5Gnwa8mM-4" target="0ka2nRvzRmum5Gnwa8mM-9">
          <mxGeometry width="100" relative="1" as="geometry">
            <mxPoint x="800" y="430" as="sourcePoint" />
            <mxPoint x="900" y="430" as="targetPoint" />
          </mxGeometry>
        </mxCell>
        <mxCell id="0ka2nRvzRmum5Gnwa8mM-11" value="Auto Scaling group" style="points=[[0,0],[0.25,0],[0.5,0],[0.75,0],[1,0],[1,0.25],[1,0.5],[1,0.75],[1,1],[0.75,1],[0.5,1],[0.25,1],[0,1],[0,0.75],[0,0.5],[0,0.25]];outlineConnect=0;gradientColor=none;html=1;whiteSpace=wrap;fontSize=12;fontStyle=0;container=1;pointerEvents=0;collapsible=0;recursiveResize=0;shape=mxgraph.aws4.groupCenter;grIcon=mxgraph.aws4.group_auto_scaling_group;grStroke=1;strokeColor=#D86613;fillColor=none;verticalAlign=top;align=center;fontColor=#D86613;dashed=1;spacingTop=25;" vertex="1" parent="0ka2nRvzRmum5Gnwa8mM-1">
          <mxGeometry x="910" y="90" width="420" height="480" as="geometry" />
        </mxCell>
        <mxCell id="0ka2nRvzRmum5Gnwa8mM-12" value="EC2 + SG&lt;br&gt;+ Multi AZ&lt;br&gt;+ ASG&amp;nbsp;+ reserverd instances &lt;br&gt;(ex: min capacity 2 instances)" style="text;html=1;align=center;verticalAlign=middle;whiteSpace=wrap;rounded=0;strokeColor=#F7F7F7;" vertex="1" parent="0ka2nRvzRmum5Gnwa8mM-11">
          <mxGeometry x="100" y="319.5" width="260" height="90" as="geometry" />
        </mxCell>
        <mxCell id="0ka2nRvzRmum5Gnwa8mM-13" value="" style="sketch=0;outlineConnect=0;fontColor=#232F3E;gradientColor=none;fillColor=#C925D1;strokeColor=none;dashed=0;verticalLabelPosition=bottom;verticalAlign=top;align=center;html=1;fontSize=12;fontStyle=0;aspect=fixed;pointerEvents=1;shape=mxgraph.aws4.elasticache_for_redis;" vertex="1" parent="0ka2nRvzRmum5Gnwa8mM-1">
          <mxGeometry x="1410" y="131" width="78" height="69" as="geometry" />
        </mxCell>
        <mxCell id="0ka2nRvzRmum5Gnwa8mM-14" value="ElastiCache&amp;nbsp;&lt;br&gt;for Redis" style="text;html=1;align=center;verticalAlign=middle;whiteSpace=wrap;rounded=0;strokeColor=#F7F7F7;" vertex="1" parent="0ka2nRvzRmum5Gnwa8mM-1">
          <mxGeometry x="1384" y="214" width="130" height="30" as="geometry" />
        </mxCell>
        <mxCell id="0ka2nRvzRmum5Gnwa8mM-15" value="RDS Multi AZ DB Cluster" style="text;html=1;align=center;verticalAlign=middle;whiteSpace=wrap;rounded=0;strokeColor=#F7F7F7;" vertex="1" parent="0ka2nRvzRmum5Gnwa8mM-1">
          <mxGeometry x="1400" y="400" width="144" height="30" as="geometry" />
        </mxCell>
        <mxCell id="0ka2nRvzRmum5Gnwa8mM-16" value="" style="sketch=0;points=[[0,0,0],[0.25,0,0],[0.5,0,0],[0.75,0,0],[1,0,0],[0,1,0],[0.25,1,0],[0.5,1,0],[0.75,1,0],[1,1,0],[0,0.25,0],[0,0.5,0],[0,0.75,0],[1,0.25,0],[1,0.5,0],[1,0.75,0]];outlineConnect=0;fontColor=#232F3E;fillColor=#C925D1;strokeColor=#ffffff;dashed=0;verticalLabelPosition=bottom;verticalAlign=top;align=center;html=1;fontSize=12;fontStyle=0;aspect=fixed;shape=mxgraph.aws4.resourceIcon;resIcon=mxgraph.aws4.rds;" vertex="1" parent="0ka2nRvzRmum5Gnwa8mM-1">
          <mxGeometry x="1420" y="502" width="78" height="78" as="geometry" />
        </mxCell>
        <mxCell id="0ka2nRvzRmum5Gnwa8mM-17" value="RDS Read Replicas" style="text;html=1;align=center;verticalAlign=middle;whiteSpace=wrap;rounded=0;strokeColor=#F7F7F7;" vertex="1" parent="0ka2nRvzRmum5Gnwa8mM-1">
          <mxGeometry x="1387" y="580" width="144" height="30" as="geometry" />
        </mxCell>
        <mxCell id="0ka2nRvzRmum5Gnwa8mM-18" value="" style="edgeStyle=orthogonalEdgeStyle;html=1;endArrow=block;elbow=vertical;startArrow=block;startFill=1;endFill=1;strokeColor=#545B64;rounded=0;exitX=1;exitY=0.5;exitDx=0;exitDy=0;exitPerimeter=0;entryX=0;entryY=0.5;entryDx=0;entryDy=0;entryPerimeter=0;" edge="1" parent="0ka2nRvzRmum5Gnwa8mM-1" source="0ka2nRvzRmum5Gnwa8mM-9" target="0ka2nRvzRmum5Gnwa8mM-16">
          <mxGeometry width="100" relative="1" as="geometry">
            <mxPoint x="1177" y="373" as="sourcePoint" />
            <mxPoint x="1360" y="530" as="targetPoint" />
            <Array as="points">
              <mxPoint x="1340" y="360" />
              <mxPoint x="1340" y="541" />
            </Array>
          </mxGeometry>
        </mxCell>
        <mxCell id="0ka2nRvzRmum5Gnwa8mM-19" value="" style="edgeStyle=orthogonalEdgeStyle;html=1;endArrow=none;elbow=vertical;startArrow=block;startFill=1;strokeColor=#545B64;rounded=0;exitX=0.5;exitY=0;exitDx=0;exitDy=0;exitPerimeter=0;" edge="1" parent="0ka2nRvzRmum5Gnwa8mM-1" source="0ka2nRvzRmum5Gnwa8mM-16">
          <mxGeometry width="100" relative="1" as="geometry">
            <mxPoint x="1070" y="490" as="sourcePoint" />
            <mxPoint x="1459" y="397.86084090909105" as="targetPoint" />
            <Array as="points">
              <mxPoint x="1459" y="470" />
              <mxPoint x="1459" y="470" />
            </Array>
          </mxGeometry>
        </mxCell>
        <mxCell id="0ka2nRvzRmum5Gnwa8mM-20" value="Sync Replication" style="text;html=1;align=center;verticalAlign=middle;whiteSpace=wrap;rounded=0;strokeColor=#F7F7F7;" vertex="1" parent="0ka2nRvzRmum5Gnwa8mM-1">
          <mxGeometry x="1440" y="440" width="144" height="30" as="geometry" />
        </mxCell>
        <mxCell id="0ka2nRvzRmum5Gnwa8mM-21" value="" style="sketch=0;points=[[0,0,0],[0.25,0,0],[0.5,0,0],[0.75,0,0],[1,0,0],[0,1,0],[0.25,1,0],[0.5,1,0],[0.75,1,0],[1,1,0],[0,0.25,0],[0,0.5,0],[0,0.75,0],[1,0.25,0],[1,0.5,0],[1,0.75,0]];outlineConnect=0;fontColor=#232F3E;fillColor=#C925D1;strokeColor=#ffffff;dashed=0;verticalLabelPosition=bottom;verticalAlign=top;align=center;html=1;fontSize=12;fontStyle=0;aspect=fixed;shape=mxgraph.aws4.resourceIcon;resIcon=mxgraph.aws4.rds;" vertex="1" parent="0ka2nRvzRmum5Gnwa8mM-1">
          <mxGeometry x="1420" y="321" width="78" height="78" as="geometry" />
        </mxCell>
        <mxCell id="0ka2nRvzRmum5Gnwa8mM-22" value="" style="edgeStyle=orthogonalEdgeStyle;html=1;endArrow=block;elbow=vertical;startArrow=block;startFill=1;endFill=1;strokeColor=#545B64;rounded=0;exitX=1;exitY=0.5;exitDx=0;exitDy=0;exitPerimeter=0;entryX=0;entryY=0.5;entryDx=0;entryDy=0;entryPerimeter=0;" edge="1" parent="0ka2nRvzRmum5Gnwa8mM-1" source="0ka2nRvzRmum5Gnwa8mM-9" target="0ka2nRvzRmum5Gnwa8mM-21">
          <mxGeometry width="100" relative="1" as="geometry">
            <mxPoint x="1240" y="340" as="sourcePoint" />
            <mxPoint x="1340" y="340" as="targetPoint" />
          </mxGeometry>
        </mxCell>
        <mxCell id="0ka2nRvzRmum5Gnwa8mM-23" value="" style="edgeStyle=orthogonalEdgeStyle;html=1;endArrow=block;elbow=vertical;startArrow=block;startFill=1;endFill=1;strokeColor=#545B64;rounded=0;exitX=1;exitY=0.5;exitDx=0;exitDy=0;exitPerimeter=0;" edge="1" parent="0ka2nRvzRmum5Gnwa8mM-1" source="0ka2nRvzRmum5Gnwa8mM-9" target="0ka2nRvzRmum5Gnwa8mM-13">
          <mxGeometry width="100" relative="1" as="geometry">
            <mxPoint x="1240" y="340" as="sourcePoint" />
            <mxPoint x="1380" y="160" as="targetPoint" />
            <Array as="points">
              <mxPoint x="1340" y="360" />
              <mxPoint x="1340" y="160" />
            </Array>
          </mxGeometry>
        </mxCell>
        <mxCell id="0ka2nRvzRmum5Gnwa8mM-24" value="" style="edgeStyle=orthogonalEdgeStyle;html=1;endArrow=block;elbow=vertical;startArrow=block;startFill=1;endFill=1;strokeColor=#545B64;rounded=0;exitX=0.9;exitY=0.5;exitDx=0;exitDy=0;exitPerimeter=0;entryX=0;entryY=0.5;entryDx=0;entryDy=0;entryPerimeter=0;" edge="1" parent="0ka2nRvzRmum5Gnwa8mM-1" source="0ka2nRvzRmum5Gnwa8mM-26" target="0ka2nRvzRmum5Gnwa8mM-28">
          <mxGeometry width="100" relative="1" as="geometry">
            <mxPoint x="-164.5" y="277" as="sourcePoint" />
            <mxPoint x="-91" y="157" as="targetPoint" />
          </mxGeometry>
        </mxCell>
        <mxCell id="0ka2nRvzRmum5Gnwa8mM-25" value="Route 53&lt;br&gt;DNS Query&lt;br&gt;for eric-app.com&lt;br&gt;Alias record" style="text;html=1;align=center;verticalAlign=middle;whiteSpace=wrap;rounded=0;strokeColor=#F7F7F7;" vertex="1" parent="0ka2nRvzRmum5Gnwa8mM-1">
          <mxGeometry x="-65" y="433" width="130" height="30" as="geometry" />
        </mxCell>
        <mxCell id="0ka2nRvzRmum5Gnwa8mM-26" value="" style="shape=actor;whiteSpace=wrap;html=1;" vertex="1" parent="0ka2nRvzRmum5Gnwa8mM-1">
          <mxGeometry x="-240" y="330" width="40" height="60" as="geometry" />
        </mxCell>
        <mxCell id="0ka2nRvzRmum5Gnwa8mM-27" value="User" style="text;html=1;align=center;verticalAlign=middle;whiteSpace=wrap;rounded=0;strokeColor=#F7F7F7;" vertex="1" parent="0ka2nRvzRmum5Gnwa8mM-1">
          <mxGeometry x="-290" y="406" width="130" height="30" as="geometry" />
        </mxCell>
        <mxCell id="0ka2nRvzRmum5Gnwa8mM-28" value="" style="sketch=0;points=[[0,0,0],[0.25,0,0],[0.5,0,0],[0.75,0,0],[1,0,0],[0,1,0],[0.25,1,0],[0.5,1,0],[0.75,1,0],[1,1,0],[0,0.25,0],[0,0.5,0],[0,0.75,0],[1,0.25,0],[1,0.5,0],[1,0.75,0]];outlineConnect=0;fontColor=#232F3E;fillColor=#8C4FFF;strokeColor=#ffffff;dashed=0;verticalLabelPosition=bottom;verticalAlign=top;align=center;html=1;fontSize=12;fontStyle=0;aspect=fixed;shape=mxgraph.aws4.resourceIcon;resIcon=mxgraph.aws4.route_53;" vertex="1" parent="0ka2nRvzRmum5Gnwa8mM-1">
          <mxGeometry x="-39" y="321" width="78" height="78" as="geometry" />
        </mxCell>
        <mxCell id="0ka2nRvzRmum5Gnwa8mM-29" value="" style="sketch=0;points=[[0,0,0],[0.25,0,0],[0.5,0,0],[0.75,0,0],[1,0,0],[0,1,0],[0.25,1,0],[0.5,1,0],[0.75,1,0],[1,1,0],[0,0.25,0],[0,0.5,0],[0,0.75,0],[1,0.25,0],[1,0.5,0],[1,0.75,0]];outlineConnect=0;fontColor=#232F3E;fillColor=#8C4FFF;strokeColor=#ffffff;dashed=0;verticalLabelPosition=bottom;verticalAlign=top;align=center;html=1;fontSize=12;fontStyle=0;aspect=fixed;shape=mxgraph.aws4.resourceIcon;resIcon=mxgraph.aws4.cloudfront;" vertex="1" parent="0ka2nRvzRmum5Gnwa8mM-1">
          <mxGeometry x="250" y="321" width="78" height="78" as="geometry" />
        </mxCell>
        <mxCell id="0ka2nRvzRmum5Gnwa8mM-30" value="" style="edgeStyle=orthogonalEdgeStyle;html=1;endArrow=block;elbow=vertical;startArrow=block;startFill=1;endFill=1;strokeColor=#545B64;rounded=0;exitX=1;exitY=0.5;exitDx=0;exitDy=0;exitPerimeter=0;entryX=0;entryY=0.5;entryDx=0;entryDy=0;entryPerimeter=0;" edge="1" parent="0ka2nRvzRmum5Gnwa8mM-1" source="0ka2nRvzRmum5Gnwa8mM-28" target="0ka2nRvzRmum5Gnwa8mM-29">
          <mxGeometry width="100" relative="1" as="geometry">
            <mxPoint x="50" y="359.66" as="sourcePoint" />
            <mxPoint x="215" y="359.66" as="targetPoint" />
          </mxGeometry>
        </mxCell>
        <mxCell id="0ka2nRvzRmum5Gnwa8mM-31" value="CloudFront" style="text;html=1;align=center;verticalAlign=middle;whiteSpace=wrap;rounded=0;strokeColor=#F7F7F7;" vertex="1" parent="0ka2nRvzRmum5Gnwa8mM-1">
          <mxGeometry x="224" y="410" width="130" height="30" as="geometry" />
        </mxCell>
        <mxCell id="0ka2nRvzRmum5Gnwa8mM-32" value="" style="sketch=0;points=[[0,0,0],[0.25,0,0],[0.5,0,0],[0.75,0,0],[1,0,0],[0,1,0],[0.25,1,0],[0.5,1,0],[0.75,1,0],[1,1,0],[0,0.25,0],[0,0.5,0],[0,0.75,0],[1,0.25,0],[1,0.5,0],[1,0.75,0]];outlineConnect=0;fontColor=#232F3E;fillColor=#7AA116;strokeColor=#ffffff;dashed=0;verticalLabelPosition=bottom;verticalAlign=top;align=center;html=1;fontSize=12;fontStyle=0;aspect=fixed;shape=mxgraph.aws4.resourceIcon;resIcon=mxgraph.aws4.s3;" vertex="1" parent="0ka2nRvzRmum5Gnwa8mM-1">
          <mxGeometry x="606" y="640" width="78" height="78" as="geometry" />
        </mxCell>
        <mxCell id="0ka2nRvzRmum5Gnwa8mM-33" value="S3" style="text;html=1;align=center;verticalAlign=middle;whiteSpace=wrap;rounded=0;strokeColor=#F7F7F7;" vertex="1" parent="0ka2nRvzRmum5Gnwa8mM-1">
          <mxGeometry x="580" y="730" width="130" height="30" as="geometry" />
        </mxCell>
        <mxCell id="0ka2nRvzRmum5Gnwa8mM-34" value="" style="edgeStyle=orthogonalEdgeStyle;html=1;endArrow=block;elbow=vertical;startArrow=block;startFill=1;endFill=1;strokeColor=#545B64;rounded=0;exitX=1;exitY=0.5;exitDx=0;exitDy=0;exitPerimeter=0;" edge="1" parent="0ka2nRvzRmum5Gnwa8mM-1" source="0ka2nRvzRmum5Gnwa8mM-29" target="0ka2nRvzRmum5Gnwa8mM-32">
          <mxGeometry width="100" relative="1" as="geometry">
            <mxPoint x="328.5" y="510" as="sourcePoint" />
            <mxPoint x="550" y="680" as="targetPoint" />
            <Array as="points">
              <mxPoint x="420" y="360" />
              <mxPoint x="420" y="680" />
              <mxPoint x="550" y="680" />
              <mxPoint x="550" y="679" />
            </Array>
          </mxGeometry>
        </mxCell>
      </root>
    </mxGraphModel>
  </diagram>
  <diagram id="Iai7-wKdZH2Kny7YeJ_K" name="Page-5">
    <mxGraphModel dx="2350" dy="887" grid="1" gridSize="10" guides="1" tooltips="1" connect="1" arrows="1" fold="1" page="1" pageScale="1" pageWidth="850" pageHeight="1100" math="0" shadow="0">
      <root>
        <mxCell id="0" />
        <mxCell id="1" parent="0" />
        <mxCell id="tKxKMMeoQW7XJ2vxDFGj-1" value="Public subnet" style="points=[[0,0],[0.25,0],[0.5,0],[0.75,0],[1,0],[1,0.25],[1,0.5],[1,0.75],[1,1],[0.75,1],[0.5,1],[0.25,1],[0,1],[0,0.75],[0,0.5],[0,0.25]];outlineConnect=0;gradientColor=none;html=1;whiteSpace=wrap;fontSize=12;fontStyle=0;container=1;pointerEvents=0;collapsible=0;recursiveResize=0;shape=mxgraph.aws4.group;grIcon=mxgraph.aws4.group_security_group;grStroke=0;strokeColor=#7AA116;fillColor=#F2F6E8;verticalAlign=top;align=left;spacingLeft=30;fontColor=#248814;dashed=0;" vertex="1" parent="1">
          <mxGeometry x="480" y="40" width="340" height="520" as="geometry" />
        </mxCell>
        <mxCell id="tKxKMMeoQW7XJ2vxDFGj-2" value="Availability Zone" style="fillColor=none;strokeColor=#147EBA;dashed=1;verticalAlign=top;fontStyle=0;fontColor=#147EBA;whiteSpace=wrap;html=1;" vertex="1" parent="1">
          <mxGeometry x="460" y="10" width="380" height="570" as="geometry" />
        </mxCell>
        <mxCell id="tKxKMMeoQW7XJ2vxDFGj-3" value="" style="outlineConnect=0;dashed=0;verticalLabelPosition=bottom;verticalAlign=top;align=center;html=1;shape=mxgraph.aws3.application_load_balancer;fillColor=#F58534;gradientColor=none;" vertex="1" parent="1">
          <mxGeometry x="610.5" y="324" width="69" height="72" as="geometry" />
        </mxCell>
        <mxCell id="tKxKMMeoQW7XJ2vxDFGj-4" value="ALB&lt;br&gt;+ Health Checks&lt;div&gt;+ Multi AZ&lt;/div&gt;" style="text;html=1;align=center;verticalAlign=middle;whiteSpace=wrap;rounded=0;strokeColor=#F7F7F7;" vertex="1" parent="1">
          <mxGeometry x="580" y="410" width="130" height="30" as="geometry" />
        </mxCell>
        <mxCell id="tKxKMMeoQW7XJ2vxDFGj-5" value="" style="edgeStyle=orthogonalEdgeStyle;html=1;endArrow=block;elbow=vertical;startArrow=block;startFill=1;endFill=1;strokeColor=#545B64;rounded=0;entryX=0;entryY=0.5;entryDx=0;entryDy=0;entryPerimeter=0;" edge="1" parent="1" source="tKxKMMeoQW7XJ2vxDFGj-28" target="tKxKMMeoQW7XJ2vxDFGj-3">
          <mxGeometry width="100" relative="1" as="geometry">
            <mxPoint x="353.9999999999998" y="360" as="sourcePoint" />
            <mxPoint x="570" y="280" as="targetPoint" />
          </mxGeometry>
        </mxCell>
        <mxCell id="tKxKMMeoQW7XJ2vxDFGj-6" value="Availability Zone" style="fillColor=none;strokeColor=#147EBA;dashed=1;verticalAlign=top;fontStyle=0;fontColor=#147EBA;whiteSpace=wrap;html=1;" vertex="1" parent="1">
          <mxGeometry x="940" y="160" width="370" height="380" as="geometry" />
        </mxCell>
        <mxCell id="tKxKMMeoQW7XJ2vxDFGj-7" value="Private subnet" style="points=[[0,0],[0.25,0],[0.5,0],[0.75,0],[1,0],[1,0.25],[1,0.5],[1,0.75],[1,1],[0.75,1],[0.5,1],[0.25,1],[0,1],[0,0.75],[0,0.5],[0,0.25]];outlineConnect=0;gradientColor=none;html=1;whiteSpace=wrap;fontSize=12;fontStyle=0;container=1;pointerEvents=0;collapsible=0;recursiveResize=0;shape=mxgraph.aws4.group;grIcon=mxgraph.aws4.group_security_group;grStroke=0;strokeColor=#00A4A6;fillColor=#E6F6F7;verticalAlign=top;align=left;spacingLeft=30;fontColor=#147EBA;dashed=0;" vertex="1" parent="1">
          <mxGeometry x="970" y="200" width="320" height="330" as="geometry" />
        </mxCell>
        <mxCell id="tKxKMMeoQW7XJ2vxDFGj-8" value="" style="outlineConnect=0;dashed=0;verticalLabelPosition=bottom;verticalAlign=top;align=center;html=1;shape=mxgraph.aws3.ec2;fillColor=#F58534;gradientColor=none;" vertex="1" parent="1">
          <mxGeometry x="1091.75" y="313.5" width="76.5" height="93" as="geometry" />
        </mxCell>
        <mxCell id="tKxKMMeoQW7XJ2vxDFGj-9" value="" style="edgeStyle=orthogonalEdgeStyle;html=1;endArrow=block;elbow=vertical;startArrow=block;startFill=1;endFill=1;strokeColor=#545B64;rounded=0;exitX=1;exitY=0.5;exitDx=0;exitDy=0;exitPerimeter=0;entryX=0;entryY=0.5;entryDx=0;entryDy=0;entryPerimeter=0;" edge="1" parent="1" source="tKxKMMeoQW7XJ2vxDFGj-3" target="tKxKMMeoQW7XJ2vxDFGj-8">
          <mxGeometry width="100" relative="1" as="geometry">
            <mxPoint x="800" y="430" as="sourcePoint" />
            <mxPoint x="900" y="430" as="targetPoint" />
          </mxGeometry>
        </mxCell>
        <mxCell id="tKxKMMeoQW7XJ2vxDFGj-10" value="Auto Scaling group" style="points=[[0,0],[0.25,0],[0.5,0],[0.75,0],[1,0],[1,0.25],[1,0.5],[1,0.75],[1,1],[0.75,1],[0.5,1],[0.25,1],[0,1],[0,0.75],[0,0.5],[0,0.25]];outlineConnect=0;gradientColor=none;html=1;whiteSpace=wrap;fontSize=12;fontStyle=0;container=1;pointerEvents=0;collapsible=0;recursiveResize=0;shape=mxgraph.aws4.groupCenter;grIcon=mxgraph.aws4.group_auto_scaling_group;grStroke=1;strokeColor=#D86613;fillColor=none;verticalAlign=top;align=center;fontColor=#D86613;dashed=1;spacingTop=25;" vertex="1" parent="1">
          <mxGeometry x="910" y="90" width="420" height="480" as="geometry" />
        </mxCell>
        <mxCell id="tKxKMMeoQW7XJ2vxDFGj-11" value="EC2 + SG&lt;br&gt;+ Multi AZ&lt;br&gt;+ ASG&amp;nbsp;+ reserverd instances &lt;br&gt;(ex: min capacity 2 instances)" style="text;html=1;align=center;verticalAlign=middle;whiteSpace=wrap;rounded=0;strokeColor=#F7F7F7;" vertex="1" parent="tKxKMMeoQW7XJ2vxDFGj-10">
          <mxGeometry x="100" y="319.5" width="260" height="90" as="geometry" />
        </mxCell>
        <mxCell id="tKxKMMeoQW7XJ2vxDFGj-12" value="" style="sketch=0;outlineConnect=0;fontColor=#232F3E;gradientColor=none;fillColor=#C925D1;strokeColor=none;dashed=0;verticalLabelPosition=bottom;verticalAlign=top;align=center;html=1;fontSize=12;fontStyle=0;aspect=fixed;pointerEvents=1;shape=mxgraph.aws4.elasticache_for_redis;" vertex="1" parent="1">
          <mxGeometry x="1410" y="131" width="78" height="69" as="geometry" />
        </mxCell>
        <mxCell id="tKxKMMeoQW7XJ2vxDFGj-13" value="ElastiCache&amp;nbsp;&lt;br&gt;for Redis" style="text;html=1;align=center;verticalAlign=middle;whiteSpace=wrap;rounded=0;strokeColor=#F7F7F7;" vertex="1" parent="1">
          <mxGeometry x="1384" y="214" width="130" height="30" as="geometry" />
        </mxCell>
        <mxCell id="tKxKMMeoQW7XJ2vxDFGj-21" value="" style="edgeStyle=orthogonalEdgeStyle;html=1;endArrow=block;elbow=vertical;startArrow=block;startFill=1;endFill=1;strokeColor=#545B64;rounded=0;exitX=1;exitY=0.5;exitDx=0;exitDy=0;exitPerimeter=0;entryX=0;entryY=0.5;entryDx=0;entryDy=0;entryPerimeter=0;" edge="1" parent="1" source="tKxKMMeoQW7XJ2vxDFGj-8" target="tKxKMMeoQW7XJ2vxDFGj-34">
          <mxGeometry width="100" relative="1" as="geometry">
            <mxPoint x="1240" y="340" as="sourcePoint" />
            <mxPoint x="1400" y="360" as="targetPoint" />
            <Array as="points" />
          </mxGeometry>
        </mxCell>
        <mxCell id="tKxKMMeoQW7XJ2vxDFGj-22" value="" style="edgeStyle=orthogonalEdgeStyle;html=1;endArrow=block;elbow=vertical;startArrow=block;startFill=1;endFill=1;strokeColor=#545B64;rounded=0;exitX=1;exitY=0.5;exitDx=0;exitDy=0;exitPerimeter=0;" edge="1" parent="1" source="tKxKMMeoQW7XJ2vxDFGj-8" target="tKxKMMeoQW7XJ2vxDFGj-12">
          <mxGeometry width="100" relative="1" as="geometry">
            <mxPoint x="1240" y="340" as="sourcePoint" />
            <mxPoint x="1380" y="160" as="targetPoint" />
            <Array as="points">
              <mxPoint x="1340" y="360" />
              <mxPoint x="1340" y="160" />
            </Array>
          </mxGeometry>
        </mxCell>
        <mxCell id="tKxKMMeoQW7XJ2vxDFGj-23" value="" style="edgeStyle=orthogonalEdgeStyle;html=1;endArrow=block;elbow=vertical;startArrow=block;startFill=1;endFill=1;strokeColor=#545B64;rounded=0;exitX=0.9;exitY=0.5;exitDx=0;exitDy=0;exitPerimeter=0;entryX=0;entryY=0.5;entryDx=0;entryDy=0;entryPerimeter=0;" edge="1" parent="1" source="tKxKMMeoQW7XJ2vxDFGj-25" target="tKxKMMeoQW7XJ2vxDFGj-27">
          <mxGeometry width="100" relative="1" as="geometry">
            <mxPoint x="-164.5" y="277" as="sourcePoint" />
            <mxPoint x="-91" y="157" as="targetPoint" />
          </mxGeometry>
        </mxCell>
        <mxCell id="tKxKMMeoQW7XJ2vxDFGj-24" value="Route 53&lt;br&gt;DNS Query&lt;br&gt;for eric-app.com&lt;br&gt;Alias record" style="text;html=1;align=center;verticalAlign=middle;whiteSpace=wrap;rounded=0;strokeColor=#F7F7F7;" vertex="1" parent="1">
          <mxGeometry x="-65" y="433" width="130" height="30" as="geometry" />
        </mxCell>
        <mxCell id="tKxKMMeoQW7XJ2vxDFGj-25" value="" style="shape=actor;whiteSpace=wrap;html=1;" vertex="1" parent="1">
          <mxGeometry x="-240" y="330" width="40" height="60" as="geometry" />
        </mxCell>
        <mxCell id="tKxKMMeoQW7XJ2vxDFGj-26" value="User" style="text;html=1;align=center;verticalAlign=middle;whiteSpace=wrap;rounded=0;strokeColor=#F7F7F7;" vertex="1" parent="1">
          <mxGeometry x="-290" y="406" width="130" height="30" as="geometry" />
        </mxCell>
        <mxCell id="tKxKMMeoQW7XJ2vxDFGj-27" value="" style="sketch=0;points=[[0,0,0],[0.25,0,0],[0.5,0,0],[0.75,0,0],[1,0,0],[0,1,0],[0.25,1,0],[0.5,1,0],[0.75,1,0],[1,1,0],[0,0.25,0],[0,0.5,0],[0,0.75,0],[1,0.25,0],[1,0.5,0],[1,0.75,0]];outlineConnect=0;fontColor=#232F3E;fillColor=#8C4FFF;strokeColor=#ffffff;dashed=0;verticalLabelPosition=bottom;verticalAlign=top;align=center;html=1;fontSize=12;fontStyle=0;aspect=fixed;shape=mxgraph.aws4.resourceIcon;resIcon=mxgraph.aws4.route_53;" vertex="1" parent="1">
          <mxGeometry x="-39" y="321" width="78" height="78" as="geometry" />
        </mxCell>
        <mxCell id="tKxKMMeoQW7XJ2vxDFGj-28" value="" style="sketch=0;points=[[0,0,0],[0.25,0,0],[0.5,0,0],[0.75,0,0],[1,0,0],[0,1,0],[0.25,1,0],[0.5,1,0],[0.75,1,0],[1,1,0],[0,0.25,0],[0,0.5,0],[0,0.75,0],[1,0.25,0],[1,0.5,0],[1,0.75,0]];outlineConnect=0;fontColor=#232F3E;fillColor=#8C4FFF;strokeColor=#ffffff;dashed=0;verticalLabelPosition=bottom;verticalAlign=top;align=center;html=1;fontSize=12;fontStyle=0;aspect=fixed;shape=mxgraph.aws4.resourceIcon;resIcon=mxgraph.aws4.cloudfront;" vertex="1" parent="1">
          <mxGeometry x="250" y="321" width="78" height="78" as="geometry" />
        </mxCell>
        <mxCell id="tKxKMMeoQW7XJ2vxDFGj-29" value="" style="edgeStyle=orthogonalEdgeStyle;html=1;endArrow=block;elbow=vertical;startArrow=block;startFill=1;endFill=1;strokeColor=#545B64;rounded=0;exitX=1;exitY=0.5;exitDx=0;exitDy=0;exitPerimeter=0;entryX=0;entryY=0.5;entryDx=0;entryDy=0;entryPerimeter=0;" edge="1" parent="1" source="tKxKMMeoQW7XJ2vxDFGj-27" target="tKxKMMeoQW7XJ2vxDFGj-28">
          <mxGeometry width="100" relative="1" as="geometry">
            <mxPoint x="50" y="359.66" as="sourcePoint" />
            <mxPoint x="215" y="359.66" as="targetPoint" />
          </mxGeometry>
        </mxCell>
        <mxCell id="tKxKMMeoQW7XJ2vxDFGj-30" value="CloudFront" style="text;html=1;align=center;verticalAlign=middle;whiteSpace=wrap;rounded=0;strokeColor=#F7F7F7;" vertex="1" parent="1">
          <mxGeometry x="224" y="410" width="130" height="30" as="geometry" />
        </mxCell>
        <mxCell id="tKxKMMeoQW7XJ2vxDFGj-31" value="" style="sketch=0;points=[[0,0,0],[0.25,0,0],[0.5,0,0],[0.75,0,0],[1,0,0],[0,1,0],[0.25,1,0],[0.5,1,0],[0.75,1,0],[1,1,0],[0,0.25,0],[0,0.5,0],[0,0.75,0],[1,0.25,0],[1,0.5,0],[1,0.75,0]];outlineConnect=0;fontColor=#232F3E;fillColor=#7AA116;strokeColor=#ffffff;dashed=0;verticalLabelPosition=bottom;verticalAlign=top;align=center;html=1;fontSize=12;fontStyle=0;aspect=fixed;shape=mxgraph.aws4.resourceIcon;resIcon=mxgraph.aws4.s3;" vertex="1" parent="1">
          <mxGeometry x="606" y="640" width="78" height="78" as="geometry" />
        </mxCell>
        <mxCell id="tKxKMMeoQW7XJ2vxDFGj-32" value="S3" style="text;html=1;align=center;verticalAlign=middle;whiteSpace=wrap;rounded=0;strokeColor=#F7F7F7;" vertex="1" parent="1">
          <mxGeometry x="580" y="730" width="130" height="30" as="geometry" />
        </mxCell>
        <mxCell id="tKxKMMeoQW7XJ2vxDFGj-33" value="" style="edgeStyle=orthogonalEdgeStyle;html=1;endArrow=block;elbow=vertical;startArrow=block;startFill=1;endFill=1;strokeColor=#545B64;rounded=0;exitX=1;exitY=0.5;exitDx=0;exitDy=0;exitPerimeter=0;" edge="1" parent="1" source="tKxKMMeoQW7XJ2vxDFGj-28" target="tKxKMMeoQW7XJ2vxDFGj-31">
          <mxGeometry width="100" relative="1" as="geometry">
            <mxPoint x="328.5" y="510" as="sourcePoint" />
            <mxPoint x="550" y="680" as="targetPoint" />
            <Array as="points">
              <mxPoint x="420" y="360" />
              <mxPoint x="420" y="680" />
              <mxPoint x="550" y="680" />
              <mxPoint x="550" y="679" />
            </Array>
          </mxGeometry>
        </mxCell>
        <mxCell id="tKxKMMeoQW7XJ2vxDFGj-34" value="" style="sketch=0;points=[[0,0,0],[0.25,0,0],[0.5,0,0],[0.75,0,0],[1,0,0],[0,1,0],[0.25,1,0],[0.5,1,0],[0.75,1,0],[1,1,0],[0,0.25,0],[0,0.5,0],[0,0.75,0],[1,0.25,0],[1,0.5,0],[1,0.75,0]];outlineConnect=0;fontColor=#232F3E;fillColor=#C925D1;strokeColor=#ffffff;dashed=0;verticalLabelPosition=bottom;verticalAlign=top;align=center;html=1;fontSize=12;fontStyle=0;aspect=fixed;shape=mxgraph.aws4.resourceIcon;resIcon=mxgraph.aws4.aurora;" vertex="1" parent="1">
          <mxGeometry x="1420" y="321" width="78" height="78" as="geometry" />
        </mxCell>
        <mxCell id="tKxKMMeoQW7XJ2vxDFGj-35" value="Aurora&amp;nbsp;&lt;br&gt;+ Multi AZ&amp;nbsp;&lt;br&gt;+ Read Replicas" style="text;html=1;align=center;verticalAlign=middle;whiteSpace=wrap;rounded=0;strokeColor=#F7F7F7;" vertex="1" parent="1">
          <mxGeometry x="1394" y="410" width="130" height="30" as="geometry" />
        </mxCell>
      </root>
    </mxGraphModel>
  </diagram>
  <diagram id="nrH7H8mofC462e36i87a" name="Page-6">
    <mxGraphModel dx="2350" dy="887" grid="1" gridSize="10" guides="1" tooltips="1" connect="1" arrows="1" fold="1" page="1" pageScale="1" pageWidth="850" pageHeight="1100" math="0" shadow="0">
      <root>
        <mxCell id="0" />
        <mxCell id="1" parent="0" />
        <mxCell id="GuZ_6s4HnZVirzDxJ0Rh-1" value="Public subnet" style="points=[[0,0],[0.25,0],[0.5,0],[0.75,0],[1,0],[1,0.25],[1,0.5],[1,0.75],[1,1],[0.75,1],[0.5,1],[0.25,1],[0,1],[0,0.75],[0,0.5],[0,0.25]];outlineConnect=0;gradientColor=none;html=1;whiteSpace=wrap;fontSize=12;fontStyle=0;container=1;pointerEvents=0;collapsible=0;recursiveResize=0;shape=mxgraph.aws4.group;grIcon=mxgraph.aws4.group_security_group;grStroke=0;strokeColor=#7AA116;fillColor=#F2F6E8;verticalAlign=top;align=left;spacingLeft=30;fontColor=#248814;dashed=0;" vertex="1" parent="1">
          <mxGeometry x="480" y="40" width="340" height="520" as="geometry" />
        </mxCell>
        <mxCell id="GuZ_6s4HnZVirzDxJ0Rh-2" value="Availability Zone" style="fillColor=none;strokeColor=#147EBA;dashed=1;verticalAlign=top;fontStyle=0;fontColor=#147EBA;whiteSpace=wrap;html=1;" vertex="1" parent="1">
          <mxGeometry x="460" y="10" width="380" height="570" as="geometry" />
        </mxCell>
        <mxCell id="GuZ_6s4HnZVirzDxJ0Rh-3" value="" style="outlineConnect=0;dashed=0;verticalLabelPosition=bottom;verticalAlign=top;align=center;html=1;shape=mxgraph.aws3.application_load_balancer;fillColor=#F58534;gradientColor=none;" vertex="1" parent="1">
          <mxGeometry x="610.5" y="324" width="69" height="72" as="geometry" />
        </mxCell>
        <mxCell id="GuZ_6s4HnZVirzDxJ0Rh-4" value="ALB&lt;br&gt;+ Health Checks&lt;div&gt;+ Multi AZ&lt;/div&gt;" style="text;html=1;align=center;verticalAlign=middle;whiteSpace=wrap;rounded=0;strokeColor=#F7F7F7;" vertex="1" parent="1">
          <mxGeometry x="580" y="410" width="130" height="30" as="geometry" />
        </mxCell>
        <mxCell id="GuZ_6s4HnZVirzDxJ0Rh-5" value="" style="edgeStyle=orthogonalEdgeStyle;html=1;endArrow=block;elbow=vertical;startArrow=block;startFill=1;endFill=1;strokeColor=#545B64;rounded=0;entryX=0;entryY=0.5;entryDx=0;entryDy=0;entryPerimeter=0;" edge="1" parent="1" source="GuZ_6s4HnZVirzDxJ0Rh-21" target="GuZ_6s4HnZVirzDxJ0Rh-3">
          <mxGeometry width="100" relative="1" as="geometry">
            <mxPoint x="353.9999999999998" y="360" as="sourcePoint" />
            <mxPoint x="570" y="280" as="targetPoint" />
          </mxGeometry>
        </mxCell>
        <mxCell id="GuZ_6s4HnZVirzDxJ0Rh-6" value="Availability Zone" style="fillColor=none;strokeColor=#147EBA;dashed=1;verticalAlign=top;fontStyle=0;fontColor=#147EBA;whiteSpace=wrap;html=1;" vertex="1" parent="1">
          <mxGeometry x="940" y="160" width="370" height="740" as="geometry" />
        </mxCell>
        <mxCell id="GuZ_6s4HnZVirzDxJ0Rh-7" value="Private subnet" style="points=[[0,0],[0.25,0],[0.5,0],[0.75,0],[1,0],[1,0.25],[1,0.5],[1,0.75],[1,1],[0.75,1],[0.5,1],[0.25,1],[0,1],[0,0.75],[0,0.5],[0,0.25]];outlineConnect=0;gradientColor=none;html=1;whiteSpace=wrap;fontSize=12;fontStyle=0;container=1;pointerEvents=0;collapsible=0;recursiveResize=0;shape=mxgraph.aws4.group;grIcon=mxgraph.aws4.group_security_group;grStroke=0;strokeColor=#00A4A6;fillColor=#E6F6F7;verticalAlign=top;align=left;spacingLeft=30;fontColor=#147EBA;dashed=0;" vertex="1" parent="1">
          <mxGeometry x="970" y="200" width="320" height="680" as="geometry" />
        </mxCell>
        <mxCell id="GuZ_6s4HnZVirzDxJ0Rh-8" value="" style="outlineConnect=0;dashed=0;verticalLabelPosition=bottom;verticalAlign=top;align=center;html=1;shape=mxgraph.aws3.ec2;fillColor=#F58534;gradientColor=none;" vertex="1" parent="1">
          <mxGeometry x="1091.75" y="313.5" width="76.5" height="93" as="geometry" />
        </mxCell>
        <mxCell id="GuZ_6s4HnZVirzDxJ0Rh-9" value="" style="edgeStyle=orthogonalEdgeStyle;html=1;endArrow=block;elbow=vertical;startArrow=block;startFill=1;endFill=1;strokeColor=#545B64;rounded=0;exitX=1;exitY=0.5;exitDx=0;exitDy=0;exitPerimeter=0;entryX=0;entryY=0.5;entryDx=0;entryDy=0;entryPerimeter=0;" edge="1" parent="1" source="GuZ_6s4HnZVirzDxJ0Rh-3" target="GuZ_6s4HnZVirzDxJ0Rh-8">
          <mxGeometry width="100" relative="1" as="geometry">
            <mxPoint x="800" y="430" as="sourcePoint" />
            <mxPoint x="900" y="430" as="targetPoint" />
          </mxGeometry>
        </mxCell>
        <mxCell id="GuZ_6s4HnZVirzDxJ0Rh-10" value="Auto Scaling group" style="points=[[0,0],[0.25,0],[0.5,0],[0.75,0],[1,0],[1,0.25],[1,0.5],[1,0.75],[1,1],[0.75,1],[0.5,1],[0.25,1],[0,1],[0,0.75],[0,0.5],[0,0.25]];outlineConnect=0;gradientColor=none;html=1;whiteSpace=wrap;fontSize=12;fontStyle=0;container=1;pointerEvents=0;collapsible=0;recursiveResize=0;shape=mxgraph.aws4.groupCenter;grIcon=mxgraph.aws4.group_auto_scaling_group;grStroke=1;strokeColor=#D86613;fillColor=none;verticalAlign=top;align=center;fontColor=#D86613;dashed=1;spacingTop=25;" vertex="1" parent="1">
          <mxGeometry x="910" y="90" width="420" height="840" as="geometry" />
        </mxCell>
        <mxCell id="GuZ_6s4HnZVirzDxJ0Rh-11" value="EC2 + SG&lt;br&gt;+ Multi AZ&lt;br&gt;+ ASG + Golden AMI&lt;br&gt;+ reserverd instances &lt;br&gt;(ex: min capacity 2 instances)" style="text;html=1;align=center;verticalAlign=middle;whiteSpace=wrap;rounded=0;strokeColor=#F7F7F7;" vertex="1" parent="GuZ_6s4HnZVirzDxJ0Rh-10">
          <mxGeometry x="100" y="319.5" width="260" height="90" as="geometry" />
        </mxCell>
        <mxCell id="GuZ_6s4HnZVirzDxJ0Rh-34" value="Elastic Network Interface" style="text;html=1;align=center;verticalAlign=middle;whiteSpace=wrap;rounded=0;strokeColor=#F7F7F7;" vertex="1" parent="GuZ_6s4HnZVirzDxJ0Rh-10">
          <mxGeometry x="140" y="570" width="160" height="40" as="geometry" />
        </mxCell>
        <mxCell id="GuZ_6s4HnZVirzDxJ0Rh-12" value="" style="sketch=0;outlineConnect=0;fontColor=#232F3E;gradientColor=none;fillColor=#C925D1;strokeColor=none;dashed=0;verticalLabelPosition=bottom;verticalAlign=top;align=center;html=1;fontSize=12;fontStyle=0;aspect=fixed;pointerEvents=1;shape=mxgraph.aws4.elasticache_for_redis;" vertex="1" parent="1">
          <mxGeometry x="1410" y="131" width="78" height="69" as="geometry" />
        </mxCell>
        <mxCell id="GuZ_6s4HnZVirzDxJ0Rh-13" value="ElastiCache&amp;nbsp;&lt;br&gt;for Redis" style="text;html=1;align=center;verticalAlign=middle;whiteSpace=wrap;rounded=0;strokeColor=#F7F7F7;" vertex="1" parent="1">
          <mxGeometry x="1384" y="214" width="130" height="30" as="geometry" />
        </mxCell>
        <mxCell id="GuZ_6s4HnZVirzDxJ0Rh-14" value="" style="edgeStyle=orthogonalEdgeStyle;html=1;endArrow=block;elbow=vertical;startArrow=block;startFill=1;endFill=1;strokeColor=#545B64;rounded=0;exitX=1;exitY=0.5;exitDx=0;exitDy=0;exitPerimeter=0;entryX=0;entryY=0.5;entryDx=0;entryDy=0;entryPerimeter=0;" edge="1" parent="1" source="GuZ_6s4HnZVirzDxJ0Rh-8" target="GuZ_6s4HnZVirzDxJ0Rh-27">
          <mxGeometry width="100" relative="1" as="geometry">
            <mxPoint x="1240" y="340" as="sourcePoint" />
            <mxPoint x="1400" y="360" as="targetPoint" />
            <Array as="points" />
          </mxGeometry>
        </mxCell>
        <mxCell id="GuZ_6s4HnZVirzDxJ0Rh-15" value="" style="edgeStyle=orthogonalEdgeStyle;html=1;endArrow=block;elbow=vertical;startArrow=block;startFill=1;endFill=1;strokeColor=#545B64;rounded=0;exitX=1;exitY=0.5;exitDx=0;exitDy=0;exitPerimeter=0;" edge="1" parent="1" source="GuZ_6s4HnZVirzDxJ0Rh-8" target="GuZ_6s4HnZVirzDxJ0Rh-12">
          <mxGeometry width="100" relative="1" as="geometry">
            <mxPoint x="1240" y="340" as="sourcePoint" />
            <mxPoint x="1380" y="160" as="targetPoint" />
            <Array as="points">
              <mxPoint x="1340" y="360" />
              <mxPoint x="1340" y="160" />
            </Array>
          </mxGeometry>
        </mxCell>
        <mxCell id="GuZ_6s4HnZVirzDxJ0Rh-16" value="" style="edgeStyle=orthogonalEdgeStyle;html=1;endArrow=block;elbow=vertical;startArrow=block;startFill=1;endFill=1;strokeColor=#545B64;rounded=0;exitX=0.9;exitY=0.5;exitDx=0;exitDy=0;exitPerimeter=0;entryX=0;entryY=0.5;entryDx=0;entryDy=0;entryPerimeter=0;" edge="1" parent="1" source="GuZ_6s4HnZVirzDxJ0Rh-18" target="GuZ_6s4HnZVirzDxJ0Rh-20">
          <mxGeometry width="100" relative="1" as="geometry">
            <mxPoint x="-164.5" y="277" as="sourcePoint" />
            <mxPoint x="-91" y="157" as="targetPoint" />
          </mxGeometry>
        </mxCell>
        <mxCell id="GuZ_6s4HnZVirzDxJ0Rh-17" value="Route 53&lt;br&gt;DNS Query&lt;br&gt;for eric-app.com&lt;br&gt;Alias record" style="text;html=1;align=center;verticalAlign=middle;whiteSpace=wrap;rounded=0;strokeColor=#F7F7F7;" vertex="1" parent="1">
          <mxGeometry x="-65" y="433" width="130" height="30" as="geometry" />
        </mxCell>
        <mxCell id="GuZ_6s4HnZVirzDxJ0Rh-18" value="" style="shape=actor;whiteSpace=wrap;html=1;" vertex="1" parent="1">
          <mxGeometry x="-240" y="330" width="40" height="60" as="geometry" />
        </mxCell>
        <mxCell id="GuZ_6s4HnZVirzDxJ0Rh-19" value="User" style="text;html=1;align=center;verticalAlign=middle;whiteSpace=wrap;rounded=0;strokeColor=#F7F7F7;" vertex="1" parent="1">
          <mxGeometry x="-290" y="406" width="130" height="30" as="geometry" />
        </mxCell>
        <mxCell id="GuZ_6s4HnZVirzDxJ0Rh-39" value="" style="edgeStyle=orthogonalEdgeStyle;rounded=0;orthogonalLoop=1;jettySize=auto;html=1;" edge="1" parent="1" source="GuZ_6s4HnZVirzDxJ0Rh-20" target="GuZ_6s4HnZVirzDxJ0Rh-17">
          <mxGeometry relative="1" as="geometry" />
        </mxCell>
        <mxCell id="GuZ_6s4HnZVirzDxJ0Rh-20" value="" style="sketch=0;points=[[0,0,0],[0.25,0,0],[0.5,0,0],[0.75,0,0],[1,0,0],[0,1,0],[0.25,1,0],[0.5,1,0],[0.75,1,0],[1,1,0],[0,0.25,0],[0,0.5,0],[0,0.75,0],[1,0.25,0],[1,0.5,0],[1,0.75,0]];outlineConnect=0;fontColor=#232F3E;fillColor=#8C4FFF;strokeColor=#ffffff;dashed=0;verticalLabelPosition=bottom;verticalAlign=top;align=center;html=1;fontSize=12;fontStyle=0;aspect=fixed;shape=mxgraph.aws4.resourceIcon;resIcon=mxgraph.aws4.route_53;" vertex="1" parent="1">
          <mxGeometry x="-39" y="321" width="78" height="78" as="geometry" />
        </mxCell>
        <mxCell id="GuZ_6s4HnZVirzDxJ0Rh-21" value="" style="sketch=0;points=[[0,0,0],[0.25,0,0],[0.5,0,0],[0.75,0,0],[1,0,0],[0,1,0],[0.25,1,0],[0.5,1,0],[0.75,1,0],[1,1,0],[0,0.25,0],[0,0.5,0],[0,0.75,0],[1,0.25,0],[1,0.5,0],[1,0.75,0]];outlineConnect=0;fontColor=#232F3E;fillColor=#8C4FFF;strokeColor=#ffffff;dashed=0;verticalLabelPosition=bottom;verticalAlign=top;align=center;html=1;fontSize=12;fontStyle=0;aspect=fixed;shape=mxgraph.aws4.resourceIcon;resIcon=mxgraph.aws4.cloudfront;" vertex="1" parent="1">
          <mxGeometry x="250" y="321" width="78" height="78" as="geometry" />
        </mxCell>
        <mxCell id="GuZ_6s4HnZVirzDxJ0Rh-22" value="" style="edgeStyle=orthogonalEdgeStyle;html=1;endArrow=block;elbow=vertical;startArrow=block;startFill=1;endFill=1;strokeColor=#545B64;rounded=0;exitX=1;exitY=0.5;exitDx=0;exitDy=0;exitPerimeter=0;entryX=0;entryY=0.5;entryDx=0;entryDy=0;entryPerimeter=0;" edge="1" parent="1" source="GuZ_6s4HnZVirzDxJ0Rh-20" target="GuZ_6s4HnZVirzDxJ0Rh-21">
          <mxGeometry width="100" relative="1" as="geometry">
            <mxPoint x="50" y="359.66" as="sourcePoint" />
            <mxPoint x="215" y="359.66" as="targetPoint" />
          </mxGeometry>
        </mxCell>
        <mxCell id="GuZ_6s4HnZVirzDxJ0Rh-23" value="CloudFront" style="text;html=1;align=center;verticalAlign=middle;whiteSpace=wrap;rounded=0;strokeColor=#F7F7F7;" vertex="1" parent="1">
          <mxGeometry x="224" y="410" width="130" height="30" as="geometry" />
        </mxCell>
        <mxCell id="GuZ_6s4HnZVirzDxJ0Rh-24" value="" style="sketch=0;points=[[0,0,0],[0.25,0,0],[0.5,0,0],[0.75,0,0],[1,0,0],[0,1,0],[0.25,1,0],[0.5,1,0],[0.75,1,0],[1,1,0],[0,0.25,0],[0,0.5,0],[0,0.75,0],[1,0.25,0],[1,0.5,0],[1,0.75,0]];outlineConnect=0;fontColor=#232F3E;fillColor=#7AA116;strokeColor=#ffffff;dashed=0;verticalLabelPosition=bottom;verticalAlign=top;align=center;html=1;fontSize=12;fontStyle=0;aspect=fixed;shape=mxgraph.aws4.resourceIcon;resIcon=mxgraph.aws4.s3;" vertex="1" parent="1">
          <mxGeometry x="606" y="640" width="78" height="78" as="geometry" />
        </mxCell>
        <mxCell id="GuZ_6s4HnZVirzDxJ0Rh-25" value="S3" style="text;html=1;align=center;verticalAlign=middle;whiteSpace=wrap;rounded=0;strokeColor=#F7F7F7;" vertex="1" parent="1">
          <mxGeometry x="580" y="730" width="130" height="30" as="geometry" />
        </mxCell>
        <mxCell id="GuZ_6s4HnZVirzDxJ0Rh-26" value="" style="edgeStyle=orthogonalEdgeStyle;html=1;endArrow=block;elbow=vertical;startArrow=block;startFill=1;endFill=1;strokeColor=#545B64;rounded=0;exitX=1;exitY=0.5;exitDx=0;exitDy=0;exitPerimeter=0;" edge="1" parent="1" source="GuZ_6s4HnZVirzDxJ0Rh-21" target="GuZ_6s4HnZVirzDxJ0Rh-24">
          <mxGeometry width="100" relative="1" as="geometry">
            <mxPoint x="328.5" y="510" as="sourcePoint" />
            <mxPoint x="550" y="680" as="targetPoint" />
            <Array as="points">
              <mxPoint x="420" y="360" />
              <mxPoint x="420" y="680" />
              <mxPoint x="550" y="680" />
              <mxPoint x="550" y="679" />
            </Array>
          </mxGeometry>
        </mxCell>
        <mxCell id="GuZ_6s4HnZVirzDxJ0Rh-27" value="" style="sketch=0;points=[[0,0,0],[0.25,0,0],[0.5,0,0],[0.75,0,0],[1,0,0],[0,1,0],[0.25,1,0],[0.5,1,0],[0.75,1,0],[1,1,0],[0,0.25,0],[0,0.5,0],[0,0.75,0],[1,0.25,0],[1,0.5,0],[1,0.75,0]];outlineConnect=0;fontColor=#232F3E;fillColor=#C925D1;strokeColor=#ffffff;dashed=0;verticalLabelPosition=bottom;verticalAlign=top;align=center;html=1;fontSize=12;fontStyle=0;aspect=fixed;shape=mxgraph.aws4.resourceIcon;resIcon=mxgraph.aws4.aurora;" vertex="1" parent="1">
          <mxGeometry x="1420" y="321" width="78" height="78" as="geometry" />
        </mxCell>
        <mxCell id="GuZ_6s4HnZVirzDxJ0Rh-28" value="Aurora&amp;nbsp;&lt;br&gt;+ Multi AZ&amp;nbsp;&lt;br&gt;+ Read Replicas" style="text;html=1;align=center;verticalAlign=middle;whiteSpace=wrap;rounded=0;strokeColor=#F7F7F7;" vertex="1" parent="1">
          <mxGeometry x="1394" y="410" width="130" height="30" as="geometry" />
        </mxCell>
        <mxCell id="GuZ_6s4HnZVirzDxJ0Rh-30" value="" style="sketch=0;points=[[0,0,0],[0.25,0,0],[0.5,0,0],[0.75,0,0],[1,0,0],[0,1,0],[0.25,1,0],[0.5,1,0],[0.75,1,0],[1,1,0],[0,0.25,0],[0,0.5,0],[0,0.75,0],[1,0.25,0],[1,0.5,0],[1,0.75,0]];outlineConnect=0;fontColor=#232F3E;fillColor=#7AA116;strokeColor=#ffffff;dashed=0;verticalLabelPosition=bottom;verticalAlign=top;align=center;html=1;fontSize=12;fontStyle=0;aspect=fixed;shape=mxgraph.aws4.resourceIcon;resIcon=mxgraph.aws4.elastic_file_system;" vertex="1" parent="1">
          <mxGeometry x="1434" y="576" width="80" height="80" as="geometry" />
        </mxCell>
        <mxCell id="GuZ_6s4HnZVirzDxJ0Rh-32" value="EFS&amp;nbsp;" style="text;html=1;align=center;verticalAlign=middle;whiteSpace=wrap;rounded=0;strokeColor=#F7F7F7;" vertex="1" parent="1">
          <mxGeometry x="1420" y="664" width="130" height="30" as="geometry" />
        </mxCell>
        <mxCell id="GuZ_6s4HnZVirzDxJ0Rh-33" value="" style="outlineConnect=0;dashed=0;verticalLabelPosition=bottom;verticalAlign=top;align=center;html=1;shape=mxgraph.aws3.elastic_network_interface;fillColor=#F58534;gradientColor=none;" vertex="1" parent="1">
          <mxGeometry x="1095.5" y="580" width="69" height="72" as="geometry" />
        </mxCell>
        <mxCell id="GuZ_6s4HnZVirzDxJ0Rh-36" value="" style="edgeStyle=orthogonalEdgeStyle;html=1;endArrow=block;elbow=vertical;startArrow=block;startFill=1;endFill=1;strokeColor=#545B64;rounded=0;entryX=0;entryY=0.5;entryDx=0;entryDy=0;entryPerimeter=0;" edge="1" parent="1" source="GuZ_6s4HnZVirzDxJ0Rh-33" target="GuZ_6s4HnZVirzDxJ0Rh-30">
          <mxGeometry width="100" relative="1" as="geometry">
            <mxPoint x="1168.25" y="615.66" as="sourcePoint" />
            <mxPoint x="1420.25" y="615.66" as="targetPoint" />
            <Array as="points" />
          </mxGeometry>
        </mxCell>
        <mxCell id="GuZ_6s4HnZVirzDxJ0Rh-38" value="" style="edgeStyle=orthogonalEdgeStyle;html=1;endArrow=block;elbow=vertical;startArrow=block;startFill=1;endFill=1;strokeColor=#545B64;rounded=0;" edge="1" parent="1" source="GuZ_6s4HnZVirzDxJ0Rh-8" target="GuZ_6s4HnZVirzDxJ0Rh-33">
          <mxGeometry width="100" relative="1" as="geometry">
            <mxPoint x="1020" y="520" as="sourcePoint" />
            <mxPoint x="1289" y="520" as="targetPoint" />
            <Array as="points" />
          </mxGeometry>
        </mxCell>
      </root>
    </mxGraphModel>
  </diagram>
</mxfile>
